  0
SECTION
  2
BLOCKS
  0
ENDSEC
  0
SECTION
  2
ENTITIES
  0
LINE
  8
0
 10
53.7495
 20
-39.9291
 11
54.2361
 21
-39.8042
  0
LINE
  8
0
 10
54.2361
 20
-39.8042
 11
54.7031
 21
-39.6193
  0
LINE
  8
0
 10
54.7031
 20
-39.6193
 11
55.1433
 21
-39.3773
  0
LINE
  8
0
 10
55.1433
 20
-39.3773
 11
55.5497
 21
-39.082
  0
LINE
  8
0
 10
55.5497
 20
-39.082
 11
55.9159
 21
-38.7382
  0
LINE
  8
0
 10
55.9159
 20
-38.7382
 11
56.2361
 21
-38.3511
  0
LINE
  8
0
 10
56.2361
 20
-38.3511
 11
56.5052
 21
-37.927
  0
LINE
  8
0
 10
56.5052
 20
-37.927
 11
56.7191
 21
-37.4725
  0
LINE
  8
0
 10
56.7191
 20
-37.4725
 11
56.8743
 21
-36.9948
  0
LINE
  8
0
 10
56.8743
 20
-36.9948
 11
56.9684
 21
-36.5013
  0
LINE
  8
0
 10
56.9684
 20
-36.5013
 11
57
 21
-36
  0
LINE
  8
0
 10
57
 20
-36
 11
57
 21
36
  0
LINE
  8
0
 10
57
 20
36
 11
56.9684
 21
36.5013
  0
LINE
  8
0
 10
56.9684
 20
36.5013
 11
56.8743
 21
36.9948
  0
LINE
  8
0
 10
56.8743
 20
36.9948
 11
56.7191
 21
37.4725
  0
LINE
  8
0
 10
56.7191
 20
37.4725
 11
56.5052
 21
37.927
  0
LINE
  8
0
 10
56.5052
 20
37.927
 11
56.2361
 21
38.3511
  0
LINE
  8
0
 10
56.2361
 20
38.3511
 11
55.9159
 21
38.7382
  0
LINE
  8
0
 10
55.9159
 20
38.7382
 11
55.5497
 21
39.082
  0
LINE
  8
0
 10
55.5497
 20
39.082
 11
55.1433
 21
39.3773
  0
LINE
  8
0
 10
55.1433
 20
39.3773
 11
54.7031
 21
39.6193
  0
LINE
  8
0
 10
54.7031
 20
39.6193
 11
54.2361
 21
39.8042
  0
LINE
  8
0
 10
54.2361
 20
39.8042
 11
53.7495
 21
39.9291
  0
LINE
  8
0
 10
53.7495
 20
39.9291
 11
53.2512
 21
39.9921
  0
LINE
  8
0
 10
53.2512
 20
39.9921
 11
-53.2512
 21
39.9921
  0
LINE
  8
0
 10
-53.2512
 20
39.9921
 11
-53.7495
 21
39.9291
  0
LINE
  8
0
 10
-53.7495
 20
39.9291
 11
-54.2361
 21
39.8042
  0
LINE
  8
0
 10
-54.2361
 20
39.8042
 11
-54.7031
 21
39.6193
  0
LINE
  8
0
 10
-54.7031
 20
39.6193
 11
-55.1433
 21
39.3773
  0
LINE
  8
0
 10
-55.1433
 20
39.3773
 11
-55.5497
 21
39.082
  0
LINE
  8
0
 10
-55.5497
 20
39.082
 11
-55.9159
 21
38.7382
  0
LINE
  8
0
 10
-55.9159
 20
38.7382
 11
-56.2361
 21
38.3511
  0
LINE
  8
0
 10
-56.2361
 20
38.3511
 11
-56.5052
 21
37.927
  0
LINE
  8
0
 10
-56.5052
 20
37.927
 11
-56.7191
 21
37.4725
  0
LINE
  8
0
 10
-56.7191
 20
37.4725
 11
-56.8743
 21
36.9948
  0
LINE
  8
0
 10
-56.8743
 20
36.9948
 11
-56.9684
 21
36.5013
  0
LINE
  8
0
 10
-56.9684
 20
36.5013
 11
-57
 21
36
  0
LINE
  8
0
 10
-57
 20
36
 11
-57
 21
-36
  0
LINE
  8
0
 10
-57
 20
-36
 11
-56.9684
 21
-36.5013
  0
LINE
  8
0
 10
-56.9684
 20
-36.5013
 11
-56.8743
 21
-36.9948
  0
LINE
  8
0
 10
-56.8743
 20
-36.9948
 11
-56.7191
 21
-37.4725
  0
LINE
  8
0
 10
-56.7191
 20
-37.4725
 11
-56.5052
 21
-37.927
  0
LINE
  8
0
 10
-56.5052
 20
-37.927
 11
-56.2361
 21
-38.3511
  0
LINE
  8
0
 10
-56.2361
 20
-38.3511
 11
-55.9159
 21
-38.7382
  0
LINE
  8
0
 10
-55.9159
 20
-38.7382
 11
-55.5497
 21
-39.082
  0
LINE
  8
0
 10
-55.5497
 20
-39.082
 11
-55.1433
 21
-39.3773
  0
LINE
  8
0
 10
-55.1433
 20
-39.3773
 11
-54.7031
 21
-39.6193
  0
LINE
  8
0
 10
-54.7031
 20
-39.6193
 11
-54.2361
 21
-39.8042
  0
LINE
  8
0
 10
-54.2361
 20
-39.8042
 11
-53.7495
 21
-39.9291
  0
LINE
  8
0
 10
-53.7495
 20
-39.9291
 11
-53.2512
 21
-39.9921
  0
LINE
  8
0
 10
-53.2512
 20
-39.9921
 11
53.2512
 21
-39.9921
  0
LINE
  8
0
 10
53.2512
 20
-39.9921
 11
53.7495
 21
-39.9291
  0
LINE
  8
0
 10
51.8744
 20
33.0039
 11
51.6252
 21
33.0354
  0
LINE
  8
0
 10
51.6252
 20
33.0354
 11
51.382
 21
33.0979
  0
LINE
  8
0
 10
51.382
 20
33.0979
 11
51.1484
 21
33.1903
  0
LINE
  8
0
 10
51.1484
 20
33.1903
 11
50.9283
 21
33.3113
  0
LINE
  8
0
 10
50.9283
 20
33.3113
 11
50.7251
 21
33.459
  0
LINE
  8
0
 10
50.7251
 20
33.459
 11
50.5421
 21
33.6309
  0
LINE
  8
0
 10
50.5421
 20
33.6309
 11
50.382
 21
33.8244
  0
LINE
  8
0
 10
50.382
 20
33.8244
 11
50.2474
 21
34.0365
  0
LINE
  8
0
 10
50.2474
 20
34.0365
 11
50.1404
 21
34.2637
  0
LINE
  8
0
 10
50.1404
 20
34.2637
 11
50.0628
 21
34.5026
  0
LINE
  8
0
 10
50.0628
 20
34.5026
 11
50.0158
 21
34.7493
  0
LINE
  8
0
 10
50.0158
 20
34.7493
 11
50
 21
35
  0
LINE
  8
0
 10
50
 20
35
 11
50.0158
 21
35.2507
  0
LINE
  8
0
 10
50.0158
 20
35.2507
 11
50.0628
 21
35.4974
  0
LINE
  8
0
 10
50.0628
 20
35.4974
 11
50.1404
 21
35.7362
  0
LINE
  8
0
 10
50.1404
 20
35.7362
 11
50.2474
 21
35.9635
  0
LINE
  8
0
 10
50.2474
 20
35.9635
 11
50.382
 21
36.1756
  0
LINE
  8
0
 10
50.382
 20
36.1756
 11
50.5421
 21
36.3691
  0
LINE
  8
0
 10
50.5421
 20
36.3691
 11
50.7251
 21
36.541
  0
LINE
  8
0
 10
50.7251
 20
36.541
 11
50.9283
 21
36.6886
  0
LINE
  8
0
 10
50.9283
 20
36.6886
 11
51.1484
 21
36.8096
  0
LINE
  8
0
 10
51.1484
 20
36.8096
 11
51.382
 21
36.9021
  0
LINE
  8
0
 10
51.382
 20
36.9021
 11
51.6252
 21
36.9646
  0
LINE
  8
0
 10
51.6252
 20
36.9646
 11
51.8744
 21
36.996
  0
LINE
  8
0
 10
51.8744
 20
36.996
 11
52.1256
 21
36.996
  0
LINE
  8
0
 10
52.1256
 20
36.996
 11
52.3748
 21
36.9646
  0
LINE
  8
0
 10
52.3748
 20
36.9646
 11
52.618
 21
36.9021
  0
LINE
  8
0
 10
52.618
 20
36.9021
 11
52.8515
 21
36.8096
  0
LINE
  8
0
 10
52.8515
 20
36.8096
 11
53.0716
 21
36.6886
  0
LINE
  8
0
 10
53.0716
 20
36.6886
 11
53.2748
 21
36.541
  0
LINE
  8
0
 10
53.2748
 20
36.541
 11
53.4579
 21
36.3691
  0
LINE
  8
0
 10
53.4579
 20
36.3691
 11
53.618
 21
36.1756
  0
LINE
  8
0
 10
53.618
 20
36.1756
 11
53.7526
 21
35.9635
  0
LINE
  8
0
 10
53.7526
 20
35.9635
 11
53.8595
 21
35.7362
  0
LINE
  8
0
 10
53.8595
 20
35.7362
 11
53.9372
 21
35.4974
  0
LINE
  8
0
 10
53.9372
 20
35.4974
 11
53.9842
 21
35.2507
  0
LINE
  8
0
 10
53.9842
 20
35.2507
 11
54
 21
35
  0
LINE
  8
0
 10
54
 20
35
 11
53.9842
 21
34.7493
  0
LINE
  8
0
 10
53.9842
 20
34.7493
 11
53.9372
 21
34.5026
  0
LINE
  8
0
 10
53.9372
 20
34.5026
 11
53.8595
 21
34.2637
  0
LINE
  8
0
 10
53.8595
 20
34.2637
 11
53.7526
 21
34.0365
  0
LINE
  8
0
 10
53.7526
 20
34.0365
 11
53.618
 21
33.8244
  0
LINE
  8
0
 10
53.618
 20
33.8244
 11
53.4579
 21
33.6309
  0
LINE
  8
0
 10
53.4579
 20
33.6309
 11
53.2748
 21
33.459
  0
LINE
  8
0
 10
53.2748
 20
33.459
 11
53.0716
 21
33.3113
  0
LINE
  8
0
 10
53.0716
 20
33.3113
 11
52.8515
 21
33.1903
  0
LINE
  8
0
 10
52.8515
 20
33.1903
 11
52.618
 21
33.0979
  0
LINE
  8
0
 10
52.618
 20
33.0979
 11
52.3748
 21
33.0354
  0
LINE
  8
0
 10
52.3748
 20
33.0354
 11
52.1256
 21
33.0039
  0
LINE
  8
0
 10
52.1256
 20
33.0039
 11
51.8744
 21
33.0039
  0
LINE
  8
0
 10
-52.1256
 20
33.0039
 11
-52.3748
 21
33.0354
  0
LINE
  8
0
 10
-52.3748
 20
33.0354
 11
-52.618
 21
33.0979
  0
LINE
  8
0
 10
-52.618
 20
33.0979
 11
-52.8515
 21
33.1903
  0
LINE
  8
0
 10
-52.8515
 20
33.1903
 11
-53.0716
 21
33.3113
  0
LINE
  8
0
 10
-53.0716
 20
33.3113
 11
-53.2748
 21
33.459
  0
LINE
  8
0
 10
-53.2748
 20
33.459
 11
-53.4579
 21
33.6309
  0
LINE
  8
0
 10
-53.4579
 20
33.6309
 11
-53.618
 21
33.8244
  0
LINE
  8
0
 10
-53.618
 20
33.8244
 11
-53.7526
 21
34.0365
  0
LINE
  8
0
 10
-53.7526
 20
34.0365
 11
-53.8595
 21
34.2637
  0
LINE
  8
0
 10
-53.8595
 20
34.2637
 11
-53.9372
 21
34.5026
  0
LINE
  8
0
 10
-53.9372
 20
34.5026
 11
-53.9842
 21
34.7493
  0
LINE
  8
0
 10
-53.9842
 20
34.7493
 11
-54
 21
35
  0
LINE
  8
0
 10
-54
 20
35
 11
-53.9842
 21
35.2507
  0
LINE
  8
0
 10
-53.9842
 20
35.2507
 11
-53.9372
 21
35.4974
  0
LINE
  8
0
 10
-53.9372
 20
35.4974
 11
-53.8595
 21
35.7362
  0
LINE
  8
0
 10
-53.8595
 20
35.7362
 11
-53.7526
 21
35.9635
  0
LINE
  8
0
 10
-53.7526
 20
35.9635
 11
-53.618
 21
36.1756
  0
LINE
  8
0
 10
-53.618
 20
36.1756
 11
-53.4579
 21
36.3691
  0
LINE
  8
0
 10
-53.4579
 20
36.3691
 11
-53.2748
 21
36.541
  0
LINE
  8
0
 10
-53.2748
 20
36.541
 11
-53.0716
 21
36.6886
  0
LINE
  8
0
 10
-53.0716
 20
36.6886
 11
-52.8515
 21
36.8096
  0
LINE
  8
0
 10
-52.8515
 20
36.8096
 11
-52.618
 21
36.9021
  0
LINE
  8
0
 10
-52.618
 20
36.9021
 11
-52.3748
 21
36.9646
  0
LINE
  8
0
 10
-52.3748
 20
36.9646
 11
-52.1256
 21
36.996
  0
LINE
  8
0
 10
-52.1256
 20
36.996
 11
-51.8744
 21
36.996
  0
LINE
  8
0
 10
-51.8744
 20
36.996
 11
-51.6252
 21
36.9646
  0
LINE
  8
0
 10
-51.6252
 20
36.9646
 11
-51.382
 21
36.9021
  0
LINE
  8
0
 10
-51.382
 20
36.9021
 11
-51.1484
 21
36.8096
  0
LINE
  8
0
 10
-51.1484
 20
36.8096
 11
-50.9283
 21
36.6886
  0
LINE
  8
0
 10
-50.9283
 20
36.6886
 11
-50.7251
 21
36.541
  0
LINE
  8
0
 10
-50.7251
 20
36.541
 11
-50.5421
 21
36.3691
  0
LINE
  8
0
 10
-50.5421
 20
36.3691
 11
-50.382
 21
36.1756
  0
LINE
  8
0
 10
-50.382
 20
36.1756
 11
-50.2474
 21
35.9635
  0
LINE
  8
0
 10
-50.2474
 20
35.9635
 11
-50.1404
 21
35.7362
  0
LINE
  8
0
 10
-50.1404
 20
35.7362
 11
-50.0628
 21
35.4974
  0
LINE
  8
0
 10
-50.0628
 20
35.4974
 11
-50.0158
 21
35.2507
  0
LINE
  8
0
 10
-50.0158
 20
35.2507
 11
-50
 21
35
  0
LINE
  8
0
 10
-50
 20
35
 11
-50.0158
 21
34.7493
  0
LINE
  8
0
 10
-50.0158
 20
34.7493
 11
-50.0628
 21
34.5026
  0
LINE
  8
0
 10
-50.0628
 20
34.5026
 11
-50.1404
 21
34.2637
  0
LINE
  8
0
 10
-50.1404
 20
34.2637
 11
-50.2474
 21
34.0365
  0
LINE
  8
0
 10
-50.2474
 20
34.0365
 11
-50.382
 21
33.8244
  0
LINE
  8
0
 10
-50.382
 20
33.8244
 11
-50.5421
 21
33.6309
  0
LINE
  8
0
 10
-50.5421
 20
33.6309
 11
-50.7251
 21
33.459
  0
LINE
  8
0
 10
-50.7251
 20
33.459
 11
-50.9283
 21
33.3113
  0
LINE
  8
0
 10
-50.9283
 20
33.3113
 11
-51.1484
 21
33.1903
  0
LINE
  8
0
 10
-51.1484
 20
33.1903
 11
-51.382
 21
33.0979
  0
LINE
  8
0
 10
-51.382
 20
33.0979
 11
-51.6252
 21
33.0354
  0
LINE
  8
0
 10
-51.6252
 20
33.0354
 11
-51.8744
 21
33.0039
  0
LINE
  8
0
 10
-51.8744
 20
33.0039
 11
-52.1256
 21
33.0039
  0
LINE
  8
0
 10
-8.09999
 20
24.5
 11
-8.09999
 21
31.5
  0
LINE
  8
0
 10
-8.09999
 20
31.5
 11
-1.09999
 21
31.5
  0
LINE
  8
0
 10
-1.09999
 20
31.5
 11
-1.09999
 21
24.5
  0
LINE
  8
0
 10
-1.09999
 20
24.5
 11
-8.09999
 21
24.5
  0
LINE
  8
0
 10
-32.1
 20
24.5
 11
-32.1
 21
31.5
  0
LINE
  8
0
 10
-32.1
 20
31.5
 11
-25.1
 21
31.5
  0
LINE
  8
0
 10
-25.1
 20
31.5
 11
-25.1
 21
24.5
  0
LINE
  8
0
 10
-25.1
 20
24.5
 11
-32.1
 21
24.5
  0
LINE
  8
0
 10
-24.1
 20
24.5
 11
-24.1
 21
31.5
  0
LINE
  8
0
 10
-24.1
 20
31.5
 11
-17.1
 21
31.5
  0
LINE
  8
0
 10
-17.1
 20
31.5
 11
-17.1
 21
24.5
  0
LINE
  8
0
 10
-17.1
 20
24.5
 11
-24.1
 21
24.5
  0
LINE
  8
0
 10
-16.1
 20
24.5
 11
-16.1
 21
31.5
  0
LINE
  8
0
 10
-16.1
 20
31.5
 11
-9.09999
 21
31.5
  0
LINE
  8
0
 10
-9.09999
 20
31.5
 11
-9.09999
 21
24.5
  0
LINE
  8
0
 10
-9.09999
 20
24.5
 11
-16.1
 21
24.5
  0
LINE
  8
0
 10
-40.1
 20
24.5
 11
-40.1
 21
31.5
  0
LINE
  8
0
 10
-40.1
 20
31.5
 11
-33.1
 21
31.5
  0
LINE
  8
0
 10
-33.1
 20
31.5
 11
-33.1
 21
24.5
  0
LINE
  8
0
 10
-33.1
 20
24.5
 11
-40.1
 21
24.5
  0
LINE
  8
0
 10
-0.0999908
 20
24.5
 11
-0.0999908
 21
31.5
  0
LINE
  8
0
 10
-0.0999908
 20
31.5
 11
6.89999
 21
31.5
  0
LINE
  8
0
 10
6.89999
 20
31.5
 11
6.89999
 21
24.5
  0
LINE
  8
0
 10
6.89999
 20
24.5
 11
-0.0999908
 21
24.5
  0
LINE
  8
0
 10
7.89999
 20
24.5
 11
7.89999
 21
31.5
  0
LINE
  8
0
 10
7.89999
 20
31.5
 11
14.9
 21
31.5
  0
LINE
  8
0
 10
14.9
 20
31.5
 11
14.9
 21
24.5
  0
LINE
  8
0
 10
14.9
 20
24.5
 11
7.89999
 21
24.5
  0
LINE
  8
0
 10
-48.1
 20
24.5
 11
-48.1
 21
31.5
  0
LINE
  8
0
 10
-48.1
 20
31.5
 11
-41.1
 21
31.5
  0
LINE
  8
0
 10
-41.1
 20
31.5
 11
-41.1
 21
24.5
  0
LINE
  8
0
 10
-41.1
 20
24.5
 11
-48.1
 21
24.5
  0
LINE
  8
0
 10
21.5
 20
13.7
 11
21.5
 21
26.7
  0
LINE
  8
0
 10
21.5
 20
26.7
 11
46.5
 21
26.7
  0
LINE
  8
0
 10
46.5
 20
26.7
 11
46.5
 21
13.7
  0
LINE
  8
0
 10
46.5
 20
13.7
 11
21.5
 21
13.7
  0
LINE
  8
0
 10
-8.09999
 20
16.5
 11
-8.09999
 21
23.5
  0
LINE
  8
0
 10
-8.09999
 20
23.5
 11
-1.09999
 21
23.5
  0
LINE
  8
0
 10
-1.09999
 20
23.5
 11
-1.09999
 21
16.5
  0
LINE
  8
0
 10
-1.09999
 20
16.5
 11
-8.09999
 21
16.5
  0
LINE
  8
0
 10
-40.1
 20
16.5
 11
-40.1
 21
23.5
  0
LINE
  8
0
 10
-40.1
 20
23.5
 11
-33.1
 21
23.5
  0
LINE
  8
0
 10
-33.1
 20
23.5
 11
-33.1
 21
16.5
  0
LINE
  8
0
 10
-33.1
 20
16.5
 11
-40.1
 21
16.5
  0
LINE
  8
0
 10
-32.1
 20
16.5
 11
-32.1
 21
23.5
  0
LINE
  8
0
 10
-32.1
 20
23.5
 11
-25.1
 21
23.5
  0
LINE
  8
0
 10
-25.1
 20
23.5
 11
-25.1
 21
16.5
  0
LINE
  8
0
 10
-25.1
 20
16.5
 11
-32.1
 21
16.5
  0
LINE
  8
0
 10
-24.1
 20
16.5
 11
-24.1
 21
23.5
  0
LINE
  8
0
 10
-24.1
 20
23.5
 11
-17.1
 21
23.5
  0
LINE
  8
0
 10
-17.1
 20
23.5
 11
-17.1
 21
16.5
  0
LINE
  8
0
 10
-17.1
 20
16.5
 11
-24.1
 21
16.5
  0
LINE
  8
0
 10
-16.1
 20
16.5
 11
-16.1
 21
23.5
  0
LINE
  8
0
 10
-16.1
 20
23.5
 11
-9.09999
 21
23.5
  0
LINE
  8
0
 10
-9.09999
 20
23.5
 11
-9.09999
 21
16.5
  0
LINE
  8
0
 10
-9.09999
 20
16.5
 11
-16.1
 21
16.5
  0
LINE
  8
0
 10
-0.0999908
 20
16.5
 11
-0.0999908
 21
23.5
  0
LINE
  8
0
 10
-0.0999908
 20
23.5
 11
6.89999
 21
23.5
  0
LINE
  8
0
 10
6.89999
 20
23.5
 11
6.89999
 21
16.5
  0
LINE
  8
0
 10
6.89999
 20
16.5
 11
-0.0999908
 21
16.5
  0
LINE
  8
0
 10
7.89999
 20
16.5
 11
7.89999
 21
23.5
  0
LINE
  8
0
 10
7.89999
 20
23.5
 11
14.9
 21
23.5
  0
LINE
  8
0
 10
14.9
 20
23.5
 11
14.9
 21
16.5
  0
LINE
  8
0
 10
14.9
 20
16.5
 11
7.89999
 21
16.5
  0
LINE
  8
0
 10
-48.1
 20
16.5
 11
-48.1
 21
23.5
  0
LINE
  8
0
 10
-48.1
 20
23.5
 11
-41.1
 21
23.5
  0
LINE
  8
0
 10
-41.1
 20
23.5
 11
-41.1
 21
16.5
  0
LINE
  8
0
 10
-41.1
 20
16.5
 11
-48.1
 21
16.5
  0
LINE
  8
0
 10
-48.1
 20
8.5
 11
-48.1
 21
15.5
  0
LINE
  8
0
 10
-48.1
 20
15.5
 11
-41.1
 21
15.5
  0
LINE
  8
0
 10
-41.1
 20
15.5
 11
-41.1
 21
8.5
  0
LINE
  8
0
 10
-41.1
 20
8.5
 11
-48.1
 21
8.5
  0
LINE
  8
0
 10
-16.1
 20
8.5
 11
-16.1
 21
15.5
  0
LINE
  8
0
 10
-16.1
 20
15.5
 11
-9.09999
 21
15.5
  0
LINE
  8
0
 10
-9.09999
 20
15.5
 11
-9.09999
 21
8.5
  0
LINE
  8
0
 10
-9.09999
 20
8.5
 11
-16.1
 21
8.5
  0
LINE
  8
0
 10
-40.1
 20
8.5
 11
-40.1
 21
15.5
  0
LINE
  8
0
 10
-40.1
 20
15.5
 11
-33.1
 21
15.5
  0
LINE
  8
0
 10
-33.1
 20
15.5
 11
-33.1
 21
8.5
  0
LINE
  8
0
 10
-33.1
 20
8.5
 11
-40.1
 21
8.5
  0
LINE
  8
0
 10
-8.09999
 20
8.5
 11
-8.09999
 21
15.5
  0
LINE
  8
0
 10
-8.09999
 20
15.5
 11
-1.09999
 21
15.5
  0
LINE
  8
0
 10
-1.09999
 20
15.5
 11
-1.09999
 21
8.5
  0
LINE
  8
0
 10
-1.09999
 20
8.5
 11
-8.09999
 21
8.5
  0
LINE
  8
0
 10
-24.1
 20
8.5
 11
-24.1
 21
15.5
  0
LINE
  8
0
 10
-24.1
 20
15.5
 11
-17.1
 21
15.5
  0
LINE
  8
0
 10
-17.1
 20
15.5
 11
-17.1
 21
8.5
  0
LINE
  8
0
 10
-17.1
 20
8.5
 11
-24.1
 21
8.5
  0
LINE
  8
0
 10
-0.0999908
 20
8.5
 11
-0.0999908
 21
15.5
  0
LINE
  8
0
 10
-0.0999908
 20
15.5
 11
6.89999
 21
15.5
  0
LINE
  8
0
 10
6.89999
 20
15.5
 11
6.89999
 21
8.5
  0
LINE
  8
0
 10
6.89999
 20
8.5
 11
-0.0999908
 21
8.5
  0
LINE
  8
0
 10
7.89999
 20
8.5
 11
7.89999
 21
15.5
  0
LINE
  8
0
 10
7.89999
 20
15.5
 11
14.9
 21
15.5
  0
LINE
  8
0
 10
14.9
 20
15.5
 11
14.9
 21
8.5
  0
LINE
  8
0
 10
14.9
 20
8.5
 11
7.89999
 21
8.5
  0
LINE
  8
0
 10
-32.1
 20
8.5
 11
-32.1
 21
15.5
  0
LINE
  8
0
 10
-32.1
 20
15.5
 11
-25.1
 21
15.5
  0
LINE
  8
0
 10
-25.1
 20
15.5
 11
-25.1
 21
8.5
  0
LINE
  8
0
 10
-25.1
 20
8.5
 11
-32.1
 21
8.5
  0
LINE
  8
0
 10
-16.1
 20
0.5
 11
-16.1
 21
7.5
  0
LINE
  8
0
 10
-16.1
 20
7.5
 11
-9.09999
 21
7.5
  0
LINE
  8
0
 10
-9.09999
 20
7.5
 11
-9.09999
 21
0.5
  0
LINE
  8
0
 10
-9.09999
 20
0.5
 11
-16.1
 21
0.5
  0
LINE
  8
0
 10
-48.1
 20
0.5
 11
-48.1
 21
7.5
  0
LINE
  8
0
 10
-48.1
 20
7.5
 11
-41.1
 21
7.5
  0
LINE
  8
0
 10
-41.1
 20
7.5
 11
-41.1
 21
0.5
  0
LINE
  8
0
 10
-41.1
 20
0.5
 11
-48.1
 21
0.5
  0
LINE
  8
0
 10
-32.1
 20
0.5
 11
-32.1
 21
7.5
  0
LINE
  8
0
 10
-32.1
 20
7.5
 11
-25.1
 21
7.5
  0
LINE
  8
0
 10
-25.1
 20
7.5
 11
-25.1
 21
0.5
  0
LINE
  8
0
 10
-25.1
 20
0.5
 11
-32.1
 21
0.5
  0
LINE
  8
0
 10
-8.09999
 20
0.5
 11
-8.09999
 21
7.5
  0
LINE
  8
0
 10
-8.09999
 20
7.5
 11
-1.09999
 21
7.5
  0
LINE
  8
0
 10
-1.09999
 20
7.5
 11
-1.09999
 21
0.5
  0
LINE
  8
0
 10
-1.09999
 20
0.5
 11
-8.09999
 21
0.5
  0
LINE
  8
0
 10
-24.1
 20
0.5
 11
-24.1
 21
7.5
  0
LINE
  8
0
 10
-24.1
 20
7.5
 11
-17.1
 21
7.5
  0
LINE
  8
0
 10
-17.1
 20
7.5
 11
-17.1
 21
0.5
  0
LINE
  8
0
 10
-17.1
 20
0.5
 11
-24.1
 21
0.5
  0
LINE
  8
0
 10
-40.1
 20
0.5
 11
-40.1
 21
7.5
  0
LINE
  8
0
 10
-40.1
 20
7.5
 11
-33.1
 21
7.5
  0
LINE
  8
0
 10
-33.1
 20
7.5
 11
-33.1
 21
0.5
  0
LINE
  8
0
 10
-33.1
 20
0.5
 11
-40.1
 21
0.5
  0
LINE
  8
0
 10
-0.0999908
 20
0.5
 11
-0.0999908
 21
7.5
  0
LINE
  8
0
 10
-0.0999908
 20
7.5
 11
6.89999
 21
7.5
  0
LINE
  8
0
 10
6.89999
 20
7.5
 11
6.89999
 21
0.5
  0
LINE
  8
0
 10
6.89999
 20
0.5
 11
-0.0999908
 21
0.5
  0
LINE
  8
0
 10
7.89999
 20
0.5
 11
7.89999
 21
7.5
  0
LINE
  8
0
 10
7.89999
 20
7.5
 11
14.9
 21
7.5
  0
LINE
  8
0
 10
14.9
 20
7.5
 11
14.9
 21
0.5
  0
LINE
  8
0
 10
14.9
 20
0.5
 11
7.89999
 21
0.5
  0
LINE
  8
0
 10
-0.0999908
 20
-7.5
 11
-0.0999908
 21
-0.5
  0
LINE
  8
0
 10
-0.0999908
 20
-0.5
 11
6.89999
 21
-0.5
  0
LINE
  8
0
 10
6.89999
 20
-0.5
 11
6.89999
 21
-7.5
  0
LINE
  8
0
 10
6.89999
 20
-7.5
 11
-0.0999908
 21
-7.5
  0
LINE
  8
0
 10
-48.1
 20
-7.5
 11
-48.1
 21
-0.5
  0
LINE
  8
0
 10
-48.1
 20
-0.5
 11
-41.1
 21
-0.5
  0
LINE
  8
0
 10
-41.1
 20
-0.5
 11
-41.1
 21
-7.5
  0
LINE
  8
0
 10
-41.1
 20
-7.5
 11
-48.1
 21
-7.5
  0
LINE
  8
0
 10
-8.09999
 20
-7.5
 11
-8.09999
 21
-0.5
  0
LINE
  8
0
 10
-8.09999
 20
-0.5
 11
-1.09999
 21
-0.5
  0
LINE
  8
0
 10
-1.09999
 20
-0.5
 11
-1.09999
 21
-7.5
  0
LINE
  8
0
 10
-1.09999
 20
-7.5
 11
-8.09999
 21
-7.5
  0
LINE
  8
0
 10
-16.1
 20
-7.5
 11
-16.1
 21
-0.5
  0
LINE
  8
0
 10
-16.1
 20
-0.5
 11
-9.09999
 21
-0.5
  0
LINE
  8
0
 10
-9.09999
 20
-0.5
 11
-9.09999
 21
-7.5
  0
LINE
  8
0
 10
-9.09999
 20
-7.5
 11
-16.1
 21
-7.5
  0
LINE
  8
0
 10
7.89999
 20
-7.5
 11
7.89999
 21
-0.5
  0
LINE
  8
0
 10
7.89999
 20
-0.5
 11
14.9
 21
-0.5
  0
LINE
  8
0
 10
14.9
 20
-0.5
 11
14.9
 21
-7.5
  0
LINE
  8
0
 10
14.9
 20
-7.5
 11
7.89999
 21
-7.5
  0
LINE
  8
0
 10
-32.1
 20
-7.5
 11
-32.1
 21
-0.5
  0
LINE
  8
0
 10
-32.1
 20
-0.5
 11
-25.1
 21
-0.5
  0
LINE
  8
0
 10
-25.1
 20
-0.5
 11
-25.1
 21
-7.5
  0
LINE
  8
0
 10
-25.1
 20
-7.5
 11
-32.1
 21
-7.5
  0
LINE
  8
0
 10
-24.1
 20
-7.5
 11
-24.1
 21
-0.5
  0
LINE
  8
0
 10
-24.1
 20
-0.5
 11
-17.1
 21
-0.5
  0
LINE
  8
0
 10
-17.1
 20
-0.5
 11
-17.1
 21
-7.5
  0
LINE
  8
0
 10
-17.1
 20
-7.5
 11
-24.1
 21
-7.5
  0
LINE
  8
0
 10
-40.1
 20
-7.5
 11
-40.1
 21
-0.5
  0
LINE
  8
0
 10
-40.1
 20
-0.5
 11
-33.1
 21
-0.5
  0
LINE
  8
0
 10
-33.1
 20
-0.5
 11
-33.1
 21
-7.5
  0
LINE
  8
0
 10
-33.1
 20
-7.5
 11
-40.1
 21
-7.5
  0
LINE
  8
0
 10
42.3802
 20
-10.4931
 11
41.9442
 21
-10.438
  0
LINE
  8
0
 10
41.9442
 20
-10.438
 11
41.5184
 21
-10.3287
  0
LINE
  8
0
 10
41.5184
 20
-10.3287
 11
41.1098
 21
-10.1669
  0
LINE
  8
0
 10
41.1098
 20
-10.1669
 11
40.7246
 21
-9.95514
  0
LINE
  8
0
 10
40.7246
 20
-9.95514
 11
40.369
 21
-9.69679
  0
LINE
  8
0
 10
40.369
 20
-9.69679
 11
40.0486
 21
-9.3959
  0
LINE
  8
0
 10
40.0486
 20
-9.3959
 11
39.7684
 21
-9.05724
  0
LINE
  8
0
 10
39.7684
 20
-9.05724
 11
39.5329
 21
-8.68613
  0
LINE
  8
0
 10
39.5329
 20
-8.68613
 11
39.3458
 21
-8.28842
  0
LINE
  8
0
 10
39.3458
 20
-8.28842
 11
39.2099
 21
-7.87041
  0
LINE
  8
0
 10
39.2099
 20
-7.87041
 11
39.1276
 21
-7.43866
  0
LINE
  8
0
 10
39.1276
 20
-7.43866
 11
39.1
 21
-7
  0
LINE
  8
0
 10
39.1
 20
-7
 11
39.1276
 21
-6.56133
  0
LINE
  8
0
 10
39.1276
 20
-6.56133
 11
39.2099
 21
-6.12958
  0
LINE
  8
0
 10
39.2099
 20
-6.12958
 11
39.3458
 21
-5.71156
  0
LINE
  8
0
 10
39.3458
 20
-5.71156
 11
39.5329
 21
-5.31386
  0
LINE
  8
0
 10
39.5329
 20
-5.31386
 11
39.7684
 21
-4.94275
  0
LINE
  8
0
 10
39.7684
 20
-4.94275
 11
40.0486
 21
-4.60408
  0
LINE
  8
0
 10
40.0486
 20
-4.60408
 11
40.369
 21
-4.30319
  0
LINE
  8
0
 10
40.369
 20
-4.30319
 11
40.7246
 21
-4.04485
  0
LINE
  8
0
 10
40.7246
 20
-4.04485
 11
41.1098
 21
-3.8331
  0
LINE
  8
0
 10
41.1098
 20
-3.8331
 11
41.5184
 21
-3.6713
  0
LINE
  8
0
 10
41.5184
 20
-3.6713
 11
41.9442
 21
-3.56198
  0
LINE
  8
0
 10
41.9442
 20
-3.56198
 11
42.3802
 21
-3.5069
  0
LINE
  8
0
 10
42.3802
 20
-3.5069
 11
42.8198
 21
-3.5069
  0
LINE
  8
0
 10
42.8198
 20
-3.5069
 11
43.2558
 21
-3.56198
  0
LINE
  8
0
 10
43.2558
 20
-3.56198
 11
43.6815
 21
-3.6713
  0
LINE
  8
0
 10
43.6815
 20
-3.6713
 11
44.0902
 21
-3.8331
  0
LINE
  8
0
 10
44.0902
 20
-3.8331
 11
44.4754
 21
-4.04485
  0
LINE
  8
0
 10
44.4754
 20
-4.04485
 11
44.831
 21
-4.30319
  0
LINE
  8
0
 10
44.831
 20
-4.30319
 11
45.1514
 21
-4.60408
  0
LINE
  8
0
 10
45.1514
 20
-4.60408
 11
45.4315
 21
-4.94275
  0
LINE
  8
0
 10
45.4315
 20
-4.94275
 11
45.6671
 21
-5.31386
  0
LINE
  8
0
 10
45.6671
 20
-5.31386
 11
45.8542
 21
-5.71156
  0
LINE
  8
0
 10
45.8542
 20
-5.71156
 11
45.99
 21
-6.12958
  0
LINE
  8
0
 10
45.99
 20
-6.12958
 11
46.0724
 21
-6.56133
  0
LINE
  8
0
 10
46.0724
 20
-6.56133
 11
46.1
 21
-7
  0
LINE
  8
0
 10
46.1
 20
-7
 11
46.0724
 21
-7.43866
  0
LINE
  8
0
 10
46.0724
 20
-7.43866
 11
45.99
 21
-7.87041
  0
LINE
  8
0
 10
45.99
 20
-7.87041
 11
45.8542
 21
-8.28842
  0
LINE
  8
0
 10
45.8542
 20
-8.28842
 11
45.6671
 21
-8.68613
  0
LINE
  8
0
 10
45.6671
 20
-8.68613
 11
45.4315
 21
-9.05724
  0
LINE
  8
0
 10
45.4315
 20
-9.05724
 11
45.1514
 21
-9.3959
  0
LINE
  8
0
 10
45.1514
 20
-9.3959
 11
44.831
 21
-9.69679
  0
LINE
  8
0
 10
44.831
 20
-9.69679
 11
44.4754
 21
-9.95514
  0
LINE
  8
0
 10
44.4754
 20
-9.95514
 11
44.0902
 21
-10.1669
  0
LINE
  8
0
 10
44.0902
 20
-10.1669
 11
43.6815
 21
-10.3287
  0
LINE
  8
0
 10
43.6815
 20
-10.3287
 11
43.2558
 21
-10.438
  0
LINE
  8
0
 10
43.2558
 20
-10.438
 11
42.8198
 21
-10.4931
  0
LINE
  8
0
 10
42.8198
 20
-10.4931
 11
42.3802
 21
-10.4931
  0
LINE
  8
0
 10
7.89999
 20
-15.5
 11
7.89999
 21
-8.5
  0
LINE
  8
0
 10
7.89999
 20
-8.5
 11
14.9
 21
-8.5
  0
LINE
  8
0
 10
14.9
 20
-8.5
 11
14.9
 21
-15.5
  0
LINE
  8
0
 10
14.9
 20
-15.5
 11
7.89999
 21
-15.5
  0
LINE
  8
0
 10
-40.1
 20
-15.5
 11
-40.1
 21
-8.5
  0
LINE
  8
0
 10
-40.1
 20
-8.5
 11
-33.1
 21
-8.5
  0
LINE
  8
0
 10
-33.1
 20
-8.5
 11
-33.1
 21
-15.5
  0
LINE
  8
0
 10
-33.1
 20
-15.5
 11
-40.1
 21
-15.5
  0
LINE
  8
0
 10
-0.0999908
 20
-15.5
 11
-0.0999908
 21
-8.5
  0
LINE
  8
0
 10
-0.0999908
 20
-8.5
 11
6.89999
 21
-8.5
  0
LINE
  8
0
 10
6.89999
 20
-8.5
 11
6.89999
 21
-15.5
  0
LINE
  8
0
 10
6.89999
 20
-15.5
 11
-0.0999908
 21
-15.5
  0
LINE
  8
0
 10
-24.1
 20
-15.5
 11
-24.1
 21
-8.5
  0
LINE
  8
0
 10
-24.1
 20
-8.5
 11
-17.1
 21
-8.5
  0
LINE
  8
0
 10
-17.1
 20
-8.5
 11
-17.1
 21
-15.5
  0
LINE
  8
0
 10
-17.1
 20
-15.5
 11
-24.1
 21
-15.5
  0
LINE
  8
0
 10
-8.09999
 20
-15.5
 11
-8.09999
 21
-8.5
  0
LINE
  8
0
 10
-8.09999
 20
-8.5
 11
-1.09999
 21
-8.5
  0
LINE
  8
0
 10
-1.09999
 20
-8.5
 11
-1.09999
 21
-15.5
  0
LINE
  8
0
 10
-1.09999
 20
-15.5
 11
-8.09999
 21
-15.5
  0
LINE
  8
0
 10
-32.1
 20
-15.5
 11
-32.1
 21
-8.5
  0
LINE
  8
0
 10
-32.1
 20
-8.5
 11
-25.1
 21
-8.5
  0
LINE
  8
0
 10
-25.1
 20
-8.5
 11
-25.1
 21
-15.5
  0
LINE
  8
0
 10
-25.1
 20
-15.5
 11
-32.1
 21
-15.5
  0
LINE
  8
0
 10
-48.1
 20
-15.5
 11
-48.1
 21
-8.5
  0
LINE
  8
0
 10
-48.1
 20
-8.5
 11
-41.1
 21
-8.5
  0
LINE
  8
0
 10
-41.1
 20
-8.5
 11
-41.1
 21
-15.5
  0
LINE
  8
0
 10
-41.1
 20
-15.5
 11
-48.1
 21
-15.5
  0
LINE
  8
0
 10
-16.1
 20
-15.5
 11
-16.1
 21
-8.5
  0
LINE
  8
0
 10
-16.1
 20
-8.5
 11
-9.09999
 21
-8.5
  0
LINE
  8
0
 10
-9.09999
 20
-8.5
 11
-9.09999
 21
-15.5
  0
LINE
  8
0
 10
-9.09999
 20
-15.5
 11
-16.1
 21
-15.5
  0
LINE
  8
0
 10
7.89999
 20
-23.5
 11
7.89999
 21
-16.5
  0
LINE
  8
0
 10
7.89999
 20
-16.5
 11
14.9
 21
-16.5
  0
LINE
  8
0
 10
14.9
 20
-16.5
 11
14.9
 21
-23.5
  0
LINE
  8
0
 10
14.9
 20
-23.5
 11
7.89999
 21
-23.5
  0
LINE
  8
0
 10
-16.1
 20
-23.5
 11
-16.1
 21
-16.5
  0
LINE
  8
0
 10
-16.1
 20
-16.5
 11
-9.09999
 21
-16.5
  0
LINE
  8
0
 10
-9.09999
 20
-16.5
 11
-9.09999
 21
-23.5
  0
LINE
  8
0
 10
-9.09999
 20
-23.5
 11
-16.1
 21
-23.5
  0
LINE
  8
0
 10
-48.1
 20
-23.5
 11
-48.1
 21
-16.5
  0
LINE
  8
0
 10
-48.1
 20
-16.5
 11
-41.1
 21
-16.5
  0
LINE
  8
0
 10
-41.1
 20
-16.5
 11
-41.1
 21
-23.5
  0
LINE
  8
0
 10
-41.1
 20
-23.5
 11
-48.1
 21
-23.5
  0
LINE
  8
0
 10
-24.1
 20
-23.5
 11
-24.1
 21
-16.5
  0
LINE
  8
0
 10
-24.1
 20
-16.5
 11
-17.1
 21
-16.5
  0
LINE
  8
0
 10
-17.1
 20
-16.5
 11
-17.1
 21
-23.5
  0
LINE
  8
0
 10
-17.1
 20
-23.5
 11
-24.1
 21
-23.5
  0
LINE
  8
0
 10
-8.09999
 20
-23.5
 11
-8.09999
 21
-16.5
  0
LINE
  8
0
 10
-8.09999
 20
-16.5
 11
-1.09999
 21
-16.5
  0
LINE
  8
0
 10
-1.09999
 20
-16.5
 11
-1.09999
 21
-23.5
  0
LINE
  8
0
 10
-1.09999
 20
-23.5
 11
-8.09999
 21
-23.5
  0
LINE
  8
0
 10
-32.1
 20
-23.5
 11
-32.1
 21
-16.5
  0
LINE
  8
0
 10
-32.1
 20
-16.5
 11
-25.1
 21
-16.5
  0
LINE
  8
0
 10
-25.1
 20
-16.5
 11
-25.1
 21
-23.5
  0
LINE
  8
0
 10
-25.1
 20
-23.5
 11
-32.1
 21
-23.5
  0
LINE
  8
0
 10
-0.0999908
 20
-23.5
 11
-0.0999908
 21
-16.5
  0
LINE
  8
0
 10
-0.0999908
 20
-16.5
 11
6.89999
 21
-16.5
  0
LINE
  8
0
 10
6.89999
 20
-16.5
 11
6.89999
 21
-23.5
  0
LINE
  8
0
 10
6.89999
 20
-23.5
 11
-0.0999908
 21
-23.5
  0
LINE
  8
0
 10
-40.1
 20
-23.5
 11
-40.1
 21
-16.5
  0
LINE
  8
0
 10
-40.1
 20
-16.5
 11
-33.1
 21
-16.5
  0
LINE
  8
0
 10
-33.1
 20
-16.5
 11
-33.1
 21
-23.5
  0
LINE
  8
0
 10
-33.1
 20
-23.5
 11
-40.1
 21
-23.5
  0
LINE
  8
0
 10
38.5
 20
-31.5
 11
38.5
 21
-18.3
  0
LINE
  8
0
 10
38.5
 20
-18.3
 11
46.7
 21
-18.3
  0
LINE
  8
0
 10
46.7
 20
-18.3
 11
46.7
 21
-31.5
  0
LINE
  8
0
 10
46.7
 20
-31.5
 11
38.5
 21
-31.5
  0
LINE
  8
0
 10
-40.1
 20
-31.5
 11
-40.1
 21
-24.5
  0
LINE
  8
0
 10
-40.1
 20
-24.5
 11
-33.1
 21
-24.5
  0
LINE
  8
0
 10
-33.1
 20
-24.5
 11
-33.1
 21
-31.5
  0
LINE
  8
0
 10
-33.1
 20
-31.5
 11
-40.1
 21
-31.5
  0
LINE
  8
0
 10
7.89999
 20
-31.5
 11
7.89999
 21
-24.5
  0
LINE
  8
0
 10
7.89999
 20
-24.5
 11
14.9
 21
-24.5
  0
LINE
  8
0
 10
14.9
 20
-24.5
 11
14.9
 21
-31.5
  0
LINE
  8
0
 10
14.9
 20
-31.5
 11
7.89999
 21
-31.5
  0
LINE
  8
0
 10
-0.0999908
 20
-31.5
 11
-0.0999908
 21
-24.5
  0
LINE
  8
0
 10
-0.0999908
 20
-24.5
 11
6.89999
 21
-24.5
  0
LINE
  8
0
 10
6.89999
 20
-24.5
 11
6.89999
 21
-31.5
  0
LINE
  8
0
 10
6.89999
 20
-31.5
 11
-0.0999908
 21
-31.5
  0
LINE
  8
0
 10
-8.09999
 20
-31.5
 11
-8.09999
 21
-24.5
  0
LINE
  8
0
 10
-8.09999
 20
-24.5
 11
-1.09999
 21
-24.5
  0
LINE
  8
0
 10
-1.09999
 20
-24.5
 11
-1.09999
 21
-31.5
  0
LINE
  8
0
 10
-1.09999
 20
-31.5
 11
-8.09999
 21
-31.5
  0
LINE
  8
0
 10
-48.1
 20
-31.5
 11
-48.1
 21
-24.5
  0
LINE
  8
0
 10
-48.1
 20
-24.5
 11
-41.1
 21
-24.5
  0
LINE
  8
0
 10
-41.1
 20
-24.5
 11
-41.1
 21
-31.5
  0
LINE
  8
0
 10
-41.1
 20
-31.5
 11
-48.1
 21
-31.5
  0
LINE
  8
0
 10
-16.1
 20
-31.5
 11
-16.1
 21
-24.5
  0
LINE
  8
0
 10
-16.1
 20
-24.5
 11
-9.09999
 21
-24.5
  0
LINE
  8
0
 10
-9.09999
 20
-24.5
 11
-9.09999
 21
-31.5
  0
LINE
  8
0
 10
-9.09999
 20
-31.5
 11
-16.1
 21
-31.5
  0
LINE
  8
0
 10
-24.1
 20
-31.5
 11
-24.1
 21
-24.5
  0
LINE
  8
0
 10
-24.1
 20
-24.5
 11
-17.1
 21
-24.5
  0
LINE
  8
0
 10
-17.1
 20
-24.5
 11
-17.1
 21
-31.5
  0
LINE
  8
0
 10
-17.1
 20
-31.5
 11
-24.1
 21
-31.5
  0
LINE
  8
0
 10
-32.1
 20
-31.5
 11
-32.1
 21
-24.5
  0
LINE
  8
0
 10
-32.1
 20
-24.5
 11
-25.1
 21
-24.5
  0
LINE
  8
0
 10
-25.1
 20
-24.5
 11
-25.1
 21
-31.5
  0
LINE
  8
0
 10
-25.1
 20
-31.5
 11
-32.1
 21
-31.5
  0
LINE
  8
0
 10
51.8744
 20
-36.996
 11
51.6252
 21
-36.9646
  0
LINE
  8
0
 10
51.6252
 20
-36.9646
 11
51.382
 21
-36.9021
  0
LINE
  8
0
 10
51.382
 20
-36.9021
 11
51.1484
 21
-36.8096
  0
LINE
  8
0
 10
51.1484
 20
-36.8096
 11
50.9283
 21
-36.6886
  0
LINE
  8
0
 10
50.9283
 20
-36.6886
 11
50.7251
 21
-36.541
  0
LINE
  8
0
 10
50.7251
 20
-36.541
 11
50.5421
 21
-36.3691
  0
LINE
  8
0
 10
50.5421
 20
-36.3691
 11
50.382
 21
-36.1756
  0
LINE
  8
0
 10
50.382
 20
-36.1756
 11
50.2474
 21
-35.9635
  0
LINE
  8
0
 10
50.2474
 20
-35.9635
 11
50.1404
 21
-35.7362
  0
LINE
  8
0
 10
50.1404
 20
-35.7362
 11
50.0628
 21
-35.4974
  0
LINE
  8
0
 10
50.0628
 20
-35.4974
 11
50.0158
 21
-35.2507
  0
LINE
  8
0
 10
50.0158
 20
-35.2507
 11
50
 21
-35
  0
LINE
  8
0
 10
50
 20
-35
 11
50.0158
 21
-34.7493
  0
LINE
  8
0
 10
50.0158
 20
-34.7493
 11
50.0628
 21
-34.5026
  0
LINE
  8
0
 10
50.0628
 20
-34.5026
 11
50.1404
 21
-34.2637
  0
LINE
  8
0
 10
50.1404
 20
-34.2637
 11
50.2474
 21
-34.0365
  0
LINE
  8
0
 10
50.2474
 20
-34.0365
 11
50.382
 21
-33.8244
  0
LINE
  8
0
 10
50.382
 20
-33.8244
 11
50.5421
 21
-33.6309
  0
LINE
  8
0
 10
50.5421
 20
-33.6309
 11
50.7251
 21
-33.459
  0
LINE
  8
0
 10
50.7251
 20
-33.459
 11
50.9283
 21
-33.3113
  0
LINE
  8
0
 10
50.9283
 20
-33.3113
 11
51.1484
 21
-33.1903
  0
LINE
  8
0
 10
51.1484
 20
-33.1903
 11
51.382
 21
-33.0979
  0
LINE
  8
0
 10
51.382
 20
-33.0979
 11
51.6252
 21
-33.0354
  0
LINE
  8
0
 10
51.6252
 20
-33.0354
 11
51.8744
 21
-33.0039
  0
LINE
  8
0
 10
51.8744
 20
-33.0039
 11
52.1256
 21
-33.0039
  0
LINE
  8
0
 10
52.1256
 20
-33.0039
 11
52.3748
 21
-33.0354
  0
LINE
  8
0
 10
52.3748
 20
-33.0354
 11
52.618
 21
-33.0979
  0
LINE
  8
0
 10
52.618
 20
-33.0979
 11
52.8515
 21
-33.1903
  0
LINE
  8
0
 10
52.8515
 20
-33.1903
 11
53.0716
 21
-33.3113
  0
LINE
  8
0
 10
53.0716
 20
-33.3113
 11
53.2748
 21
-33.459
  0
LINE
  8
0
 10
53.2748
 20
-33.459
 11
53.4579
 21
-33.6309
  0
LINE
  8
0
 10
53.4579
 20
-33.6309
 11
53.618
 21
-33.8244
  0
LINE
  8
0
 10
53.618
 20
-33.8244
 11
53.7526
 21
-34.0365
  0
LINE
  8
0
 10
53.7526
 20
-34.0365
 11
53.8595
 21
-34.2637
  0
LINE
  8
0
 10
53.8595
 20
-34.2637
 11
53.9372
 21
-34.5026
  0
LINE
  8
0
 10
53.9372
 20
-34.5026
 11
53.9842
 21
-34.7493
  0
LINE
  8
0
 10
53.9842
 20
-34.7493
 11
54
 21
-35
  0
LINE
  8
0
 10
54
 20
-35
 11
53.9842
 21
-35.2507
  0
LINE
  8
0
 10
53.9842
 20
-35.2507
 11
53.9372
 21
-35.4974
  0
LINE
  8
0
 10
53.9372
 20
-35.4974
 11
53.8595
 21
-35.7362
  0
LINE
  8
0
 10
53.8595
 20
-35.7362
 11
53.7526
 21
-35.9635
  0
LINE
  8
0
 10
53.7526
 20
-35.9635
 11
53.618
 21
-36.1756
  0
LINE
  8
0
 10
53.618
 20
-36.1756
 11
53.4579
 21
-36.3691
  0
LINE
  8
0
 10
53.4579
 20
-36.3691
 11
53.2748
 21
-36.541
  0
LINE
  8
0
 10
53.2748
 20
-36.541
 11
53.0716
 21
-36.6886
  0
LINE
  8
0
 10
53.0716
 20
-36.6886
 11
52.8515
 21
-36.8096
  0
LINE
  8
0
 10
52.8515
 20
-36.8096
 11
52.618
 21
-36.9021
  0
LINE
  8
0
 10
52.618
 20
-36.9021
 11
52.3748
 21
-36.9646
  0
LINE
  8
0
 10
52.3748
 20
-36.9646
 11
52.1256
 21
-36.996
  0
LINE
  8
0
 10
52.1256
 20
-36.996
 11
51.8744
 21
-36.996
  0
LINE
  8
0
 10
-52.1256
 20
-36.996
 11
-52.3748
 21
-36.9646
  0
LINE
  8
0
 10
-52.3748
 20
-36.9646
 11
-52.618
 21
-36.9021
  0
LINE
  8
0
 10
-52.618
 20
-36.9021
 11
-52.8515
 21
-36.8096
  0
LINE
  8
0
 10
-52.8515
 20
-36.8096
 11
-53.0716
 21
-36.6886
  0
LINE
  8
0
 10
-53.0716
 20
-36.6886
 11
-53.2748
 21
-36.541
  0
LINE
  8
0
 10
-53.2748
 20
-36.541
 11
-53.4579
 21
-36.3691
  0
LINE
  8
0
 10
-53.4579
 20
-36.3691
 11
-53.618
 21
-36.1756
  0
LINE
  8
0
 10
-53.618
 20
-36.1756
 11
-53.7526
 21
-35.9635
  0
LINE
  8
0
 10
-53.7526
 20
-35.9635
 11
-53.8595
 21
-35.7362
  0
LINE
  8
0
 10
-53.8595
 20
-35.7362
 11
-53.9372
 21
-35.4974
  0
LINE
  8
0
 10
-53.9372
 20
-35.4974
 11
-53.9842
 21
-35.2507
  0
LINE
  8
0
 10
-53.9842
 20
-35.2507
 11
-54
 21
-35
  0
LINE
  8
0
 10
-54
 20
-35
 11
-53.9842
 21
-34.7493
  0
LINE
  8
0
 10
-53.9842
 20
-34.7493
 11
-53.9372
 21
-34.5026
  0
LINE
  8
0
 10
-53.9372
 20
-34.5026
 11
-53.8595
 21
-34.2637
  0
LINE
  8
0
 10
-53.8595
 20
-34.2637
 11
-53.7526
 21
-34.0365
  0
LINE
  8
0
 10
-53.7526
 20
-34.0365
 11
-53.618
 21
-33.8244
  0
LINE
  8
0
 10
-53.618
 20
-33.8244
 11
-53.4579
 21
-33.6309
  0
LINE
  8
0
 10
-53.4579
 20
-33.6309
 11
-53.2748
 21
-33.459
  0
LINE
  8
0
 10
-53.2748
 20
-33.459
 11
-53.0716
 21
-33.3113
  0
LINE
  8
0
 10
-53.0716
 20
-33.3113
 11
-52.8515
 21
-33.1903
  0
LINE
  8
0
 10
-52.8515
 20
-33.1903
 11
-52.618
 21
-33.0979
  0
LINE
  8
0
 10
-52.618
 20
-33.0979
 11
-52.3748
 21
-33.0354
  0
LINE
  8
0
 10
-52.3748
 20
-33.0354
 11
-52.1256
 21
-33.0039
  0
LINE
  8
0
 10
-52.1256
 20
-33.0039
 11
-51.8744
 21
-33.0039
  0
LINE
  8
0
 10
-51.8744
 20
-33.0039
 11
-51.6252
 21
-33.0354
  0
LINE
  8
0
 10
-51.6252
 20
-33.0354
 11
-51.382
 21
-33.0979
  0
LINE
  8
0
 10
-51.382
 20
-33.0979
 11
-51.1484
 21
-33.1903
  0
LINE
  8
0
 10
-51.1484
 20
-33.1903
 11
-50.9283
 21
-33.3113
  0
LINE
  8
0
 10
-50.9283
 20
-33.3113
 11
-50.7251
 21
-33.459
  0
LINE
  8
0
 10
-50.7251
 20
-33.459
 11
-50.5421
 21
-33.6309
  0
LINE
  8
0
 10
-50.5421
 20
-33.6309
 11
-50.382
 21
-33.8244
  0
LINE
  8
0
 10
-50.382
 20
-33.8244
 11
-50.2474
 21
-34.0365
  0
LINE
  8
0
 10
-50.2474
 20
-34.0365
 11
-50.1404
 21
-34.2637
  0
LINE
  8
0
 10
-50.1404
 20
-34.2637
 11
-50.0628
 21
-34.5026
  0
LINE
  8
0
 10
-50.0628
 20
-34.5026
 11
-50.0158
 21
-34.7493
  0
LINE
  8
0
 10
-50.0158
 20
-34.7493
 11
-50
 21
-35
  0
LINE
  8
0
 10
-50
 20
-35
 11
-50.0158
 21
-35.2507
  0
LINE
  8
0
 10
-50.0158
 20
-35.2507
 11
-50.0628
 21
-35.4974
  0
LINE
  8
0
 10
-50.0628
 20
-35.4974
 11
-50.1404
 21
-35.7362
  0
LINE
  8
0
 10
-50.1404
 20
-35.7362
 11
-50.2474
 21
-35.9635
  0
LINE
  8
0
 10
-50.2474
 20
-35.9635
 11
-50.382
 21
-36.1756
  0
LINE
  8
0
 10
-50.382
 20
-36.1756
 11
-50.5421
 21
-36.3691
  0
LINE
  8
0
 10
-50.5421
 20
-36.3691
 11
-50.7251
 21
-36.541
  0
LINE
  8
0
 10
-50.7251
 20
-36.541
 11
-50.9283
 21
-36.6886
  0
LINE
  8
0
 10
-50.9283
 20
-36.6886
 11
-51.1484
 21
-36.8096
  0
LINE
  8
0
 10
-51.1484
 20
-36.8096
 11
-51.382
 21
-36.9021
  0
LINE
  8
0
 10
-51.382
 20
-36.9021
 11
-51.6252
 21
-36.9646
  0
LINE
  8
0
 10
-51.6252
 20
-36.9646
 11
-51.8744
 21
-36.996
  0
LINE
  8
0
 10
-51.8744
 20
-36.996
 11
-52.1256
 21
-36.996
  0
ENDSEC
  0
SECTION
  2
OBJECTS
  0
DICTIONARY
  0
ENDSEC
  0
EOF
