  0
SECTION
  2
BLOCKS
  0
ENDSEC
  0
SECTION
  2
ENTITIES
  0
LINE
  8
0
 10
53.7495
 20
-39.9291
 11
54.2361
 21
-39.8042
  0
LINE
  8
0
 10
54.2361
 20
-39.8042
 11
54.7031
 21
-39.6193
  0
LINE
  8
0
 10
54.7031
 20
-39.6193
 11
55.1433
 21
-39.3773
  0
LINE
  8
0
 10
55.1433
 20
-39.3773
 11
55.5497
 21
-39.082
  0
LINE
  8
0
 10
55.5497
 20
-39.082
 11
55.9159
 21
-38.7382
  0
LINE
  8
0
 10
55.9159
 20
-38.7382
 11
56.2361
 21
-38.3511
  0
LINE
  8
0
 10
56.2361
 20
-38.3511
 11
56.5052
 21
-37.927
  0
LINE
  8
0
 10
56.5052
 20
-37.927
 11
56.7191
 21
-37.4725
  0
LINE
  8
0
 10
56.7191
 20
-37.4725
 11
56.8743
 21
-36.9948
  0
LINE
  8
0
 10
56.8743
 20
-36.9948
 11
56.9684
 21
-36.5013
  0
LINE
  8
0
 10
56.9684
 20
-36.5013
 11
57
 21
-36
  0
LINE
  8
0
 10
57
 20
-36
 11
57
 21
36
  0
LINE
  8
0
 10
57
 20
36
 11
56.9684
 21
36.5013
  0
LINE
  8
0
 10
56.9684
 20
36.5013
 11
56.8743
 21
36.9948
  0
LINE
  8
0
 10
56.8743
 20
36.9948
 11
56.7191
 21
37.4725
  0
LINE
  8
0
 10
56.7191
 20
37.4725
 11
56.5052
 21
37.927
  0
LINE
  8
0
 10
56.5052
 20
37.927
 11
56.2361
 21
38.3511
  0
LINE
  8
0
 10
56.2361
 20
38.3511
 11
55.9159
 21
38.7382
  0
LINE
  8
0
 10
55.9159
 20
38.7382
 11
55.5497
 21
39.082
  0
LINE
  8
0
 10
55.5497
 20
39.082
 11
55.1433
 21
39.3773
  0
LINE
  8
0
 10
55.1433
 20
39.3773
 11
54.7031
 21
39.6193
  0
LINE
  8
0
 10
54.7031
 20
39.6193
 11
54.2361
 21
39.8042
  0
LINE
  8
0
 10
54.2361
 20
39.8042
 11
53.7495
 21
39.9291
  0
LINE
  8
0
 10
53.7495
 20
39.9291
 11
53.2512
 21
39.9921
  0
LINE
  8
0
 10
53.2512
 20
39.9921
 11
-53.2512
 21
39.9921
  0
LINE
  8
0
 10
-53.2512
 20
39.9921
 11
-53.7495
 21
39.9291
  0
LINE
  8
0
 10
-53.7495
 20
39.9291
 11
-54.2361
 21
39.8042
  0
LINE
  8
0
 10
-54.2361
 20
39.8042
 11
-54.7031
 21
39.6193
  0
LINE
  8
0
 10
-54.7031
 20
39.6193
 11
-55.1433
 21
39.3773
  0
LINE
  8
0
 10
-55.1433
 20
39.3773
 11
-55.5497
 21
39.082
  0
LINE
  8
0
 10
-55.5497
 20
39.082
 11
-55.9159
 21
38.7382
  0
LINE
  8
0
 10
-55.9159
 20
38.7382
 11
-56.2361
 21
38.3511
  0
LINE
  8
0
 10
-56.2361
 20
38.3511
 11
-56.5052
 21
37.927
  0
LINE
  8
0
 10
-56.5052
 20
37.927
 11
-56.7191
 21
37.4725
  0
LINE
  8
0
 10
-56.7191
 20
37.4725
 11
-56.8743
 21
36.9948
  0
LINE
  8
0
 10
-56.8743
 20
36.9948
 11
-56.9684
 21
36.5013
  0
LINE
  8
0
 10
-56.9684
 20
36.5013
 11
-57
 21
36
  0
LINE
  8
0
 10
-57
 20
36
 11
-57
 21
-36
  0
LINE
  8
0
 10
-57
 20
-36
 11
-56.9684
 21
-36.5013
  0
LINE
  8
0
 10
-56.9684
 20
-36.5013
 11
-56.8743
 21
-36.9948
  0
LINE
  8
0
 10
-56.8743
 20
-36.9948
 11
-56.7191
 21
-37.4725
  0
LINE
  8
0
 10
-56.7191
 20
-37.4725
 11
-56.5052
 21
-37.927
  0
LINE
  8
0
 10
-56.5052
 20
-37.927
 11
-56.2361
 21
-38.3511
  0
LINE
  8
0
 10
-56.2361
 20
-38.3511
 11
-55.9159
 21
-38.7382
  0
LINE
  8
0
 10
-55.9159
 20
-38.7382
 11
-55.5497
 21
-39.082
  0
LINE
  8
0
 10
-55.5497
 20
-39.082
 11
-55.1433
 21
-39.3773
  0
LINE
  8
0
 10
-55.1433
 20
-39.3773
 11
-54.7031
 21
-39.6193
  0
LINE
  8
0
 10
-54.7031
 20
-39.6193
 11
-54.2361
 21
-39.8042
  0
LINE
  8
0
 10
-54.2361
 20
-39.8042
 11
-53.7495
 21
-39.9291
  0
LINE
  8
0
 10
-53.7495
 20
-39.9291
 11
-53.2512
 21
-39.9921
  0
LINE
  8
0
 10
-53.2512
 20
-39.9921
 11
53.2512
 21
-39.9921
  0
LINE
  8
0
 10
53.2512
 20
-39.9921
 11
53.7495
 21
-39.9291
  0
LINE
  8
0
 10
51.8744
 20
33.0039
 11
51.6252
 21
33.0354
  0
LINE
  8
0
 10
51.6252
 20
33.0354
 11
51.382
 21
33.0979
  0
LINE
  8
0
 10
51.382
 20
33.0979
 11
51.1484
 21
33.1903
  0
LINE
  8
0
 10
51.1484
 20
33.1903
 11
50.9283
 21
33.3113
  0
LINE
  8
0
 10
50.9283
 20
33.3113
 11
50.7251
 21
33.459
  0
LINE
  8
0
 10
50.7251
 20
33.459
 11
50.5421
 21
33.6309
  0
LINE
  8
0
 10
50.5421
 20
33.6309
 11
50.382
 21
33.8244
  0
LINE
  8
0
 10
50.382
 20
33.8244
 11
50.2474
 21
34.0365
  0
LINE
  8
0
 10
50.2474
 20
34.0365
 11
50.1404
 21
34.2637
  0
LINE
  8
0
 10
50.1404
 20
34.2637
 11
50.0628
 21
34.5026
  0
LINE
  8
0
 10
50.0628
 20
34.5026
 11
50.0158
 21
34.7493
  0
LINE
  8
0
 10
50.0158
 20
34.7493
 11
50
 21
35
  0
LINE
  8
0
 10
50
 20
35
 11
50.0158
 21
35.2507
  0
LINE
  8
0
 10
50.0158
 20
35.2507
 11
50.0628
 21
35.4974
  0
LINE
  8
0
 10
50.0628
 20
35.4974
 11
50.1404
 21
35.7362
  0
LINE
  8
0
 10
50.1404
 20
35.7362
 11
50.2474
 21
35.9635
  0
LINE
  8
0
 10
50.2474
 20
35.9635
 11
50.382
 21
36.1756
  0
LINE
  8
0
 10
50.382
 20
36.1756
 11
50.5421
 21
36.3691
  0
LINE
  8
0
 10
50.5421
 20
36.3691
 11
50.7251
 21
36.541
  0
LINE
  8
0
 10
50.7251
 20
36.541
 11
50.9283
 21
36.6886
  0
LINE
  8
0
 10
50.9283
 20
36.6886
 11
51.1484
 21
36.8096
  0
LINE
  8
0
 10
51.1484
 20
36.8096
 11
51.382
 21
36.9021
  0
LINE
  8
0
 10
51.382
 20
36.9021
 11
51.6252
 21
36.9646
  0
LINE
  8
0
 10
51.6252
 20
36.9646
 11
51.8744
 21
36.996
  0
LINE
  8
0
 10
51.8744
 20
36.996
 11
52.1256
 21
36.996
  0
LINE
  8
0
 10
52.1256
 20
36.996
 11
52.3748
 21
36.9646
  0
LINE
  8
0
 10
52.3748
 20
36.9646
 11
52.618
 21
36.9021
  0
LINE
  8
0
 10
52.618
 20
36.9021
 11
52.8515
 21
36.8096
  0
LINE
  8
0
 10
52.8515
 20
36.8096
 11
53.0716
 21
36.6886
  0
LINE
  8
0
 10
53.0716
 20
36.6886
 11
53.2748
 21
36.541
  0
LINE
  8
0
 10
53.2748
 20
36.541
 11
53.4579
 21
36.3691
  0
LINE
  8
0
 10
53.4579
 20
36.3691
 11
53.618
 21
36.1756
  0
LINE
  8
0
 10
53.618
 20
36.1756
 11
53.7526
 21
35.9635
  0
LINE
  8
0
 10
53.7526
 20
35.9635
 11
53.8595
 21
35.7362
  0
LINE
  8
0
 10
53.8595
 20
35.7362
 11
53.9372
 21
35.4974
  0
LINE
  8
0
 10
53.9372
 20
35.4974
 11
53.9842
 21
35.2507
  0
LINE
  8
0
 10
53.9842
 20
35.2507
 11
54
 21
35
  0
LINE
  8
0
 10
54
 20
35
 11
53.9842
 21
34.7493
  0
LINE
  8
0
 10
53.9842
 20
34.7493
 11
53.9372
 21
34.5026
  0
LINE
  8
0
 10
53.9372
 20
34.5026
 11
53.8595
 21
34.2637
  0
LINE
  8
0
 10
53.8595
 20
34.2637
 11
53.7526
 21
34.0365
  0
LINE
  8
0
 10
53.7526
 20
34.0365
 11
53.618
 21
33.8244
  0
LINE
  8
0
 10
53.618
 20
33.8244
 11
53.4579
 21
33.6309
  0
LINE
  8
0
 10
53.4579
 20
33.6309
 11
53.2748
 21
33.459
  0
LINE
  8
0
 10
53.2748
 20
33.459
 11
53.0716
 21
33.3113
  0
LINE
  8
0
 10
53.0716
 20
33.3113
 11
52.8515
 21
33.1903
  0
LINE
  8
0
 10
52.8515
 20
33.1903
 11
52.618
 21
33.0979
  0
LINE
  8
0
 10
52.618
 20
33.0979
 11
52.3748
 21
33.0354
  0
LINE
  8
0
 10
52.3748
 20
33.0354
 11
52.1256
 21
33.0039
  0
LINE
  8
0
 10
52.1256
 20
33.0039
 11
51.8744
 21
33.0039
  0
LINE
  8
0
 10
-52.1256
 20
33.0039
 11
-52.3748
 21
33.0354
  0
LINE
  8
0
 10
-52.3748
 20
33.0354
 11
-52.618
 21
33.0979
  0
LINE
  8
0
 10
-52.618
 20
33.0979
 11
-52.8515
 21
33.1903
  0
LINE
  8
0
 10
-52.8515
 20
33.1903
 11
-53.0716
 21
33.3113
  0
LINE
  8
0
 10
-53.0716
 20
33.3113
 11
-53.2748
 21
33.459
  0
LINE
  8
0
 10
-53.2748
 20
33.459
 11
-53.4579
 21
33.6309
  0
LINE
  8
0
 10
-53.4579
 20
33.6309
 11
-53.618
 21
33.8244
  0
LINE
  8
0
 10
-53.618
 20
33.8244
 11
-53.7526
 21
34.0365
  0
LINE
  8
0
 10
-53.7526
 20
34.0365
 11
-53.8595
 21
34.2637
  0
LINE
  8
0
 10
-53.8595
 20
34.2637
 11
-53.9372
 21
34.5026
  0
LINE
  8
0
 10
-53.9372
 20
34.5026
 11
-53.9842
 21
34.7493
  0
LINE
  8
0
 10
-53.9842
 20
34.7493
 11
-54
 21
35
  0
LINE
  8
0
 10
-54
 20
35
 11
-53.9842
 21
35.2507
  0
LINE
  8
0
 10
-53.9842
 20
35.2507
 11
-53.9372
 21
35.4974
  0
LINE
  8
0
 10
-53.9372
 20
35.4974
 11
-53.8595
 21
35.7362
  0
LINE
  8
0
 10
-53.8595
 20
35.7362
 11
-53.7526
 21
35.9635
  0
LINE
  8
0
 10
-53.7526
 20
35.9635
 11
-53.618
 21
36.1756
  0
LINE
  8
0
 10
-53.618
 20
36.1756
 11
-53.4579
 21
36.3691
  0
LINE
  8
0
 10
-53.4579
 20
36.3691
 11
-53.2748
 21
36.541
  0
LINE
  8
0
 10
-53.2748
 20
36.541
 11
-53.0716
 21
36.6886
  0
LINE
  8
0
 10
-53.0716
 20
36.6886
 11
-52.8515
 21
36.8096
  0
LINE
  8
0
 10
-52.8515
 20
36.8096
 11
-52.618
 21
36.9021
  0
LINE
  8
0
 10
-52.618
 20
36.9021
 11
-52.3748
 21
36.9646
  0
LINE
  8
0
 10
-52.3748
 20
36.9646
 11
-52.1256
 21
36.996
  0
LINE
  8
0
 10
-52.1256
 20
36.996
 11
-51.8744
 21
36.996
  0
LINE
  8
0
 10
-51.8744
 20
36.996
 11
-51.6252
 21
36.9646
  0
LINE
  8
0
 10
-51.6252
 20
36.9646
 11
-51.382
 21
36.9021
  0
LINE
  8
0
 10
-51.382
 20
36.9021
 11
-51.1484
 21
36.8096
  0
LINE
  8
0
 10
-51.1484
 20
36.8096
 11
-50.9283
 21
36.6886
  0
LINE
  8
0
 10
-50.9283
 20
36.6886
 11
-50.7251
 21
36.541
  0
LINE
  8
0
 10
-50.7251
 20
36.541
 11
-50.5421
 21
36.3691
  0
LINE
  8
0
 10
-50.5421
 20
36.3691
 11
-50.382
 21
36.1756
  0
LINE
  8
0
 10
-50.382
 20
36.1756
 11
-50.2474
 21
35.9635
  0
LINE
  8
0
 10
-50.2474
 20
35.9635
 11
-50.1404
 21
35.7362
  0
LINE
  8
0
 10
-50.1404
 20
35.7362
 11
-50.0628
 21
35.4974
  0
LINE
  8
0
 10
-50.0628
 20
35.4974
 11
-50.0158
 21
35.2507
  0
LINE
  8
0
 10
-50.0158
 20
35.2507
 11
-50
 21
35
  0
LINE
  8
0
 10
-50
 20
35
 11
-50.0158
 21
34.7493
  0
LINE
  8
0
 10
-50.0158
 20
34.7493
 11
-50.0628
 21
34.5026
  0
LINE
  8
0
 10
-50.0628
 20
34.5026
 11
-50.1404
 21
34.2637
  0
LINE
  8
0
 10
-50.1404
 20
34.2637
 11
-50.2474
 21
34.0365
  0
LINE
  8
0
 10
-50.2474
 20
34.0365
 11
-50.382
 21
33.8244
  0
LINE
  8
0
 10
-50.382
 20
33.8244
 11
-50.5421
 21
33.6309
  0
LINE
  8
0
 10
-50.5421
 20
33.6309
 11
-50.7251
 21
33.459
  0
LINE
  8
0
 10
-50.7251
 20
33.459
 11
-50.9283
 21
33.3113
  0
LINE
  8
0
 10
-50.9283
 20
33.3113
 11
-51.1484
 21
33.1903
  0
LINE
  8
0
 10
-51.1484
 20
33.1903
 11
-51.382
 21
33.0979
  0
LINE
  8
0
 10
-51.382
 20
33.0979
 11
-51.6252
 21
33.0354
  0
LINE
  8
0
 10
-51.6252
 20
33.0354
 11
-51.8744
 21
33.0039
  0
LINE
  8
0
 10
-51.8744
 20
33.0039
 11
-52.1256
 21
33.0039
  0
LINE
  8
0
 10
-49
 20
16
 11
-49
 21
32
  0
LINE
  8
0
 10
-49
 20
32
 11
49
 21
32
  0
LINE
  8
0
 10
49
 20
32
 11
49
 21
16
  0
LINE
  8
0
 10
49
 20
16
 11
-49
 21
16
  0
LINE
  8
0
 10
42.286
 20
-11.9901
 11
41.6631
 21
-11.9114
  0
LINE
  8
0
 10
41.6631
 20
-11.9114
 11
41.0549
 21
-11.7553
  0
LINE
  8
0
 10
41.0549
 20
-11.7553
 11
40.4711
 21
-11.5241
  0
LINE
  8
0
 10
40.4711
 20
-11.5241
 11
39.9209
 21
-11.2216
  0
LINE
  8
0
 10
39.9209
 20
-11.2216
 11
39.4129
 21
-10.8526
  0
LINE
  8
0
 10
39.4129
 20
-10.8526
 11
38.9552
 21
-10.4227
  0
LINE
  8
0
 10
38.9552
 20
-10.4227
 11
38.5549
 21
-9.93892
  0
LINE
  8
0
 10
38.5549
 20
-9.93892
 11
38.2185
 21
-9.40877
  0
LINE
  8
0
 10
38.2185
 20
-9.40877
 11
37.9511
 21
-8.84062
  0
LINE
  8
0
 10
37.9511
 20
-8.84062
 11
37.7571
 21
-8.24344
  0
LINE
  8
0
 10
37.7571
 20
-8.24344
 11
37.6394
 21
-7.62666
  0
LINE
  8
0
 10
37.6394
 20
-7.62666
 11
37.6
 21
-6.99998
  0
LINE
  8
0
 10
37.6
 20
-6.99998
 11
37.6394
 21
-6.37332
  0
LINE
  8
0
 10
37.6394
 20
-6.37332
 11
37.7571
 21
-5.75655
  0
LINE
  8
0
 10
37.7571
 20
-5.75655
 11
37.9511
 21
-5.15936
  0
LINE
  8
0
 10
37.9511
 20
-5.15936
 11
38.2185
 21
-4.59122
  0
LINE
  8
0
 10
38.2185
 20
-4.59122
 11
38.5549
 21
-4.06107
  0
LINE
  8
0
 10
38.5549
 20
-4.06107
 11
38.9552
 21
-3.57726
  0
LINE
  8
0
 10
38.9552
 20
-3.57726
 11
39.4129
 21
-3.14743
  0
LINE
  8
0
 10
39.4129
 20
-3.14743
 11
39.9209
 21
-2.77835
  0
LINE
  8
0
 10
39.9209
 20
-2.77835
 11
40.4711
 21
-2.47586
  0
LINE
  8
0
 10
40.4711
 20
-2.47586
 11
41.0549
 21
-2.24471
  0
LINE
  8
0
 10
41.0549
 20
-2.24471
 11
41.6631
 21
-2.08856
  0
LINE
  8
0
 10
41.6631
 20
-2.08856
 11
42.286
 21
-2.00986
  0
LINE
  8
0
 10
42.286
 20
-2.00986
 11
42.9139
 21
-2.00986
  0
LINE
  8
0
 10
42.9139
 20
-2.00986
 11
43.5369
 21
-2.08856
  0
LINE
  8
0
 10
43.5369
 20
-2.08856
 11
44.1451
 21
-2.24471
  0
LINE
  8
0
 10
44.1451
 20
-2.24471
 11
44.7289
 21
-2.47586
  0
LINE
  8
0
 10
44.7289
 20
-2.47586
 11
45.2791
 21
-2.77835
  0
LINE
  8
0
 10
45.2791
 20
-2.77835
 11
45.7871
 21
-3.14743
  0
LINE
  8
0
 10
45.7871
 20
-3.14743
 11
46.2448
 21
-3.57726
  0
LINE
  8
0
 10
46.2448
 20
-3.57726
 11
46.6451
 21
-4.06107
  0
LINE
  8
0
 10
46.6451
 20
-4.06107
 11
46.9815
 21
-4.59122
  0
LINE
  8
0
 10
46.9815
 20
-4.59122
 11
47.2489
 21
-5.15936
  0
LINE
  8
0
 10
47.2489
 20
-5.15936
 11
47.4429
 21
-5.75655
  0
LINE
  8
0
 10
47.4429
 20
-5.75655
 11
47.5606
 21
-6.37332
  0
LINE
  8
0
 10
47.5606
 20
-6.37332
 11
47.6
 21
-7
  0
LINE
  8
0
 10
47.6
 20
-7
 11
47.5606
 21
-7.62666
  0
LINE
  8
0
 10
47.5606
 20
-7.62666
 11
47.4429
 21
-8.24344
  0
LINE
  8
0
 10
47.4429
 20
-8.24344
 11
47.2489
 21
-8.84062
  0
LINE
  8
0
 10
47.2489
 20
-8.84062
 11
46.9815
 21
-9.40877
  0
LINE
  8
0
 10
46.9815
 20
-9.40877
 11
46.6451
 21
-9.93892
  0
LINE
  8
0
 10
46.6451
 20
-9.93892
 11
46.2448
 21
-10.4227
  0
LINE
  8
0
 10
46.2448
 20
-10.4227
 11
45.7871
 21
-10.8526
  0
LINE
  8
0
 10
45.7871
 20
-10.8526
 11
45.2791
 21
-11.2216
  0
LINE
  8
0
 10
45.2791
 20
-11.2216
 11
44.7289
 21
-11.5241
  0
LINE
  8
0
 10
44.7289
 20
-11.5241
 11
44.1451
 21
-11.7553
  0
LINE
  8
0
 10
44.1451
 20
-11.7553
 11
43.5369
 21
-11.9114
  0
LINE
  8
0
 10
43.5369
 20
-11.9114
 11
42.9139
 21
-11.9901
  0
LINE
  8
0
 10
42.9139
 20
-11.9901
 11
42.286
 21
-11.9901
  0
LINE
  8
0
 10
-49
 20
-32
 11
-49
 21
-16
  0
LINE
  8
0
 10
-49
 20
-16
 11
49
 21
-16
  0
LINE
  8
0
 10
49
 20
-16
 11
49
 21
-32
  0
LINE
  8
0
 10
49
 20
-32
 11
-49
 21
-32
  0
LINE
  8
0
 10
51.8744
 20
-36.996
 11
51.6252
 21
-36.9646
  0
LINE
  8
0
 10
51.6252
 20
-36.9646
 11
51.382
 21
-36.9021
  0
LINE
  8
0
 10
51.382
 20
-36.9021
 11
51.1484
 21
-36.8096
  0
LINE
  8
0
 10
51.1484
 20
-36.8096
 11
50.9283
 21
-36.6886
  0
LINE
  8
0
 10
50.9283
 20
-36.6886
 11
50.7251
 21
-36.541
  0
LINE
  8
0
 10
50.7251
 20
-36.541
 11
50.5421
 21
-36.3691
  0
LINE
  8
0
 10
50.5421
 20
-36.3691
 11
50.382
 21
-36.1756
  0
LINE
  8
0
 10
50.382
 20
-36.1756
 11
50.2474
 21
-35.9635
  0
LINE
  8
0
 10
50.2474
 20
-35.9635
 11
50.1404
 21
-35.7362
  0
LINE
  8
0
 10
50.1404
 20
-35.7362
 11
50.0628
 21
-35.4974
  0
LINE
  8
0
 10
50.0628
 20
-35.4974
 11
50.0158
 21
-35.2507
  0
LINE
  8
0
 10
50.0158
 20
-35.2507
 11
50
 21
-35
  0
LINE
  8
0
 10
50
 20
-35
 11
50.0158
 21
-34.7493
  0
LINE
  8
0
 10
50.0158
 20
-34.7493
 11
50.0628
 21
-34.5026
  0
LINE
  8
0
 10
50.0628
 20
-34.5026
 11
50.1404
 21
-34.2637
  0
LINE
  8
0
 10
50.1404
 20
-34.2637
 11
50.2474
 21
-34.0365
  0
LINE
  8
0
 10
50.2474
 20
-34.0365
 11
50.382
 21
-33.8244
  0
LINE
  8
0
 10
50.382
 20
-33.8244
 11
50.5421
 21
-33.6309
  0
LINE
  8
0
 10
50.5421
 20
-33.6309
 11
50.7251
 21
-33.459
  0
LINE
  8
0
 10
50.7251
 20
-33.459
 11
50.9283
 21
-33.3113
  0
LINE
  8
0
 10
50.9283
 20
-33.3113
 11
51.1484
 21
-33.1903
  0
LINE
  8
0
 10
51.1484
 20
-33.1903
 11
51.382
 21
-33.0979
  0
LINE
  8
0
 10
51.382
 20
-33.0979
 11
51.6252
 21
-33.0354
  0
LINE
  8
0
 10
51.6252
 20
-33.0354
 11
51.8744
 21
-33.0039
  0
LINE
  8
0
 10
51.8744
 20
-33.0039
 11
52.1256
 21
-33.0039
  0
LINE
  8
0
 10
52.1256
 20
-33.0039
 11
52.3748
 21
-33.0354
  0
LINE
  8
0
 10
52.3748
 20
-33.0354
 11
52.618
 21
-33.0979
  0
LINE
  8
0
 10
52.618
 20
-33.0979
 11
52.8515
 21
-33.1903
  0
LINE
  8
0
 10
52.8515
 20
-33.1903
 11
53.0716
 21
-33.3113
  0
LINE
  8
0
 10
53.0716
 20
-33.3113
 11
53.2748
 21
-33.459
  0
LINE
  8
0
 10
53.2748
 20
-33.459
 11
53.4579
 21
-33.6309
  0
LINE
  8
0
 10
53.4579
 20
-33.6309
 11
53.618
 21
-33.8244
  0
LINE
  8
0
 10
53.618
 20
-33.8244
 11
53.7526
 21
-34.0365
  0
LINE
  8
0
 10
53.7526
 20
-34.0365
 11
53.8595
 21
-34.2637
  0
LINE
  8
0
 10
53.8595
 20
-34.2637
 11
53.9372
 21
-34.5026
  0
LINE
  8
0
 10
53.9372
 20
-34.5026
 11
53.9842
 21
-34.7493
  0
LINE
  8
0
 10
53.9842
 20
-34.7493
 11
54
 21
-35
  0
LINE
  8
0
 10
54
 20
-35
 11
53.9842
 21
-35.2507
  0
LINE
  8
0
 10
53.9842
 20
-35.2507
 11
53.9372
 21
-35.4974
  0
LINE
  8
0
 10
53.9372
 20
-35.4974
 11
53.8595
 21
-35.7362
  0
LINE
  8
0
 10
53.8595
 20
-35.7362
 11
53.7526
 21
-35.9635
  0
LINE
  8
0
 10
53.7526
 20
-35.9635
 11
53.618
 21
-36.1756
  0
LINE
  8
0
 10
53.618
 20
-36.1756
 11
53.4579
 21
-36.3691
  0
LINE
  8
0
 10
53.4579
 20
-36.3691
 11
53.2748
 21
-36.541
  0
LINE
  8
0
 10
53.2748
 20
-36.541
 11
53.0716
 21
-36.6886
  0
LINE
  8
0
 10
53.0716
 20
-36.6886
 11
52.8515
 21
-36.8096
  0
LINE
  8
0
 10
52.8515
 20
-36.8096
 11
52.618
 21
-36.9021
  0
LINE
  8
0
 10
52.618
 20
-36.9021
 11
52.3748
 21
-36.9646
  0
LINE
  8
0
 10
52.3748
 20
-36.9646
 11
52.1256
 21
-36.996
  0
LINE
  8
0
 10
52.1256
 20
-36.996
 11
51.8744
 21
-36.996
  0
LINE
  8
0
 10
-52.1256
 20
-36.996
 11
-52.3748
 21
-36.9646
  0
LINE
  8
0
 10
-52.3748
 20
-36.9646
 11
-52.618
 21
-36.9021
  0
LINE
  8
0
 10
-52.618
 20
-36.9021
 11
-52.8515
 21
-36.8096
  0
LINE
  8
0
 10
-52.8515
 20
-36.8096
 11
-53.0716
 21
-36.6886
  0
LINE
  8
0
 10
-53.0716
 20
-36.6886
 11
-53.2748
 21
-36.541
  0
LINE
  8
0
 10
-53.2748
 20
-36.541
 11
-53.4579
 21
-36.3691
  0
LINE
  8
0
 10
-53.4579
 20
-36.3691
 11
-53.618
 21
-36.1756
  0
LINE
  8
0
 10
-53.618
 20
-36.1756
 11
-53.7526
 21
-35.9635
  0
LINE
  8
0
 10
-53.7526
 20
-35.9635
 11
-53.8595
 21
-35.7362
  0
LINE
  8
0
 10
-53.8595
 20
-35.7362
 11
-53.9372
 21
-35.4974
  0
LINE
  8
0
 10
-53.9372
 20
-35.4974
 11
-53.9842
 21
-35.2507
  0
LINE
  8
0
 10
-53.9842
 20
-35.2507
 11
-54
 21
-35
  0
LINE
  8
0
 10
-54
 20
-35
 11
-53.9842
 21
-34.7493
  0
LINE
  8
0
 10
-53.9842
 20
-34.7493
 11
-53.9372
 21
-34.5026
  0
LINE
  8
0
 10
-53.9372
 20
-34.5026
 11
-53.8595
 21
-34.2637
  0
LINE
  8
0
 10
-53.8595
 20
-34.2637
 11
-53.7526
 21
-34.0365
  0
LINE
  8
0
 10
-53.7526
 20
-34.0365
 11
-53.618
 21
-33.8244
  0
LINE
  8
0
 10
-53.618
 20
-33.8244
 11
-53.4579
 21
-33.6309
  0
LINE
  8
0
 10
-53.4579
 20
-33.6309
 11
-53.2748
 21
-33.459
  0
LINE
  8
0
 10
-53.2748
 20
-33.459
 11
-53.0716
 21
-33.3113
  0
LINE
  8
0
 10
-53.0716
 20
-33.3113
 11
-52.8515
 21
-33.1903
  0
LINE
  8
0
 10
-52.8515
 20
-33.1903
 11
-52.618
 21
-33.0979
  0
LINE
  8
0
 10
-52.618
 20
-33.0979
 11
-52.3748
 21
-33.0354
  0
LINE
  8
0
 10
-52.3748
 20
-33.0354
 11
-52.1256
 21
-33.0039
  0
LINE
  8
0
 10
-52.1256
 20
-33.0039
 11
-51.8744
 21
-33.0039
  0
LINE
  8
0
 10
-51.8744
 20
-33.0039
 11
-51.6252
 21
-33.0354
  0
LINE
  8
0
 10
-51.6252
 20
-33.0354
 11
-51.382
 21
-33.0979
  0
LINE
  8
0
 10
-51.382
 20
-33.0979
 11
-51.1484
 21
-33.1903
  0
LINE
  8
0
 10
-51.1484
 20
-33.1903
 11
-50.9283
 21
-33.3113
  0
LINE
  8
0
 10
-50.9283
 20
-33.3113
 11
-50.7251
 21
-33.459
  0
LINE
  8
0
 10
-50.7251
 20
-33.459
 11
-50.5421
 21
-33.6309
  0
LINE
  8
0
 10
-50.5421
 20
-33.6309
 11
-50.382
 21
-33.8244
  0
LINE
  8
0
 10
-50.382
 20
-33.8244
 11
-50.2474
 21
-34.0365
  0
LINE
  8
0
 10
-50.2474
 20
-34.0365
 11
-50.1404
 21
-34.2637
  0
LINE
  8
0
 10
-50.1404
 20
-34.2637
 11
-50.0628
 21
-34.5026
  0
LINE
  8
0
 10
-50.0628
 20
-34.5026
 11
-50.0158
 21
-34.7493
  0
LINE
  8
0
 10
-50.0158
 20
-34.7493
 11
-50
 21
-35
  0
LINE
  8
0
 10
-50
 20
-35
 11
-50.0158
 21
-35.2507
  0
LINE
  8
0
 10
-50.0158
 20
-35.2507
 11
-50.0628
 21
-35.4974
  0
LINE
  8
0
 10
-50.0628
 20
-35.4974
 11
-50.1404
 21
-35.7362
  0
LINE
  8
0
 10
-50.1404
 20
-35.7362
 11
-50.2474
 21
-35.9635
  0
LINE
  8
0
 10
-50.2474
 20
-35.9635
 11
-50.382
 21
-36.1756
  0
LINE
  8
0
 10
-50.382
 20
-36.1756
 11
-50.5421
 21
-36.3691
  0
LINE
  8
0
 10
-50.5421
 20
-36.3691
 11
-50.7251
 21
-36.541
  0
LINE
  8
0
 10
-50.7251
 20
-36.541
 11
-50.9283
 21
-36.6886
  0
LINE
  8
0
 10
-50.9283
 20
-36.6886
 11
-51.1484
 21
-36.8096
  0
LINE
  8
0
 10
-51.1484
 20
-36.8096
 11
-51.382
 21
-36.9021
  0
LINE
  8
0
 10
-51.382
 20
-36.9021
 11
-51.6252
 21
-36.9646
  0
LINE
  8
0
 10
-51.6252
 20
-36.9646
 11
-51.8744
 21
-36.996
  0
LINE
  8
0
 10
-51.8744
 20
-36.996
 11
-52.1256
 21
-36.996
  0
ENDSEC
  0
SECTION
  2
OBJECTS
  0
DICTIONARY
  0
ENDSEC
  0
EOF
