  0
SECTION
  2
BLOCKS
  0
ENDSEC
  0
SECTION
  2
ENTITIES
  0
LINE
  8
0
 10
53.7495
 20
-39.9291
 11
54.2361
 21
-39.8042
  0
LINE
  8
0
 10
54.2361
 20
-39.8042
 11
54.7031
 21
-39.6193
  0
LINE
  8
0
 10
54.7031
 20
-39.6193
 11
55.1433
 21
-39.3773
  0
LINE
  8
0
 10
55.1433
 20
-39.3773
 11
55.5497
 21
-39.082
  0
LINE
  8
0
 10
55.5497
 20
-39.082
 11
55.9159
 21
-38.7382
  0
LINE
  8
0
 10
55.9159
 20
-38.7382
 11
56.2361
 21
-38.3511
  0
LINE
  8
0
 10
56.2361
 20
-38.3511
 11
56.5052
 21
-37.927
  0
LINE
  8
0
 10
56.5052
 20
-37.927
 11
56.7191
 21
-37.4725
  0
LINE
  8
0
 10
56.7191
 20
-37.4725
 11
56.8743
 21
-36.9948
  0
LINE
  8
0
 10
56.8743
 20
-36.9948
 11
56.9684
 21
-36.5013
  0
LINE
  8
0
 10
56.9684
 20
-36.5013
 11
57
 21
-36
  0
LINE
  8
0
 10
57
 20
-36
 11
57
 21
36
  0
LINE
  8
0
 10
57
 20
36
 11
56.9684
 21
36.5013
  0
LINE
  8
0
 10
56.9684
 20
36.5013
 11
56.8743
 21
36.9948
  0
LINE
  8
0
 10
56.8743
 20
36.9948
 11
56.7191
 21
37.4725
  0
LINE
  8
0
 10
56.7191
 20
37.4725
 11
56.5052
 21
37.927
  0
LINE
  8
0
 10
56.5052
 20
37.927
 11
56.2361
 21
38.3511
  0
LINE
  8
0
 10
56.2361
 20
38.3511
 11
55.9159
 21
38.7382
  0
LINE
  8
0
 10
55.9159
 20
38.7382
 11
55.5497
 21
39.082
  0
LINE
  8
0
 10
55.5497
 20
39.082
 11
55.1433
 21
39.3773
  0
LINE
  8
0
 10
55.1433
 20
39.3773
 11
54.7031
 21
39.6193
  0
LINE
  8
0
 10
54.7031
 20
39.6193
 11
54.2361
 21
39.8042
  0
LINE
  8
0
 10
54.2361
 20
39.8042
 11
53.7495
 21
39.9291
  0
LINE
  8
0
 10
53.7495
 20
39.9291
 11
53.2512
 21
39.9921
  0
LINE
  8
0
 10
53.2512
 20
39.9921
 11
-53.2512
 21
39.9921
  0
LINE
  8
0
 10
-53.2512
 20
39.9921
 11
-53.7495
 21
39.9291
  0
LINE
  8
0
 10
-53.7495
 20
39.9291
 11
-54.2361
 21
39.8042
  0
LINE
  8
0
 10
-54.2361
 20
39.8042
 11
-54.7031
 21
39.6193
  0
LINE
  8
0
 10
-54.7031
 20
39.6193
 11
-55.1433
 21
39.3773
  0
LINE
  8
0
 10
-55.1433
 20
39.3773
 11
-55.5497
 21
39.082
  0
LINE
  8
0
 10
-55.5497
 20
39.082
 11
-55.9159
 21
38.7382
  0
LINE
  8
0
 10
-55.9159
 20
38.7382
 11
-56.2361
 21
38.3511
  0
LINE
  8
0
 10
-56.2361
 20
38.3511
 11
-56.5052
 21
37.927
  0
LINE
  8
0
 10
-56.5052
 20
37.927
 11
-56.7191
 21
37.4725
  0
LINE
  8
0
 10
-56.7191
 20
37.4725
 11
-56.8743
 21
36.9948
  0
LINE
  8
0
 10
-56.8743
 20
36.9948
 11
-56.9684
 21
36.5013
  0
LINE
  8
0
 10
-56.9684
 20
36.5013
 11
-57
 21
36
  0
LINE
  8
0
 10
-57
 20
36
 11
-57
 21
-36
  0
LINE
  8
0
 10
-57
 20
-36
 11
-56.9684
 21
-36.5013
  0
LINE
  8
0
 10
-56.9684
 20
-36.5013
 11
-56.8743
 21
-36.9948
  0
LINE
  8
0
 10
-56.8743
 20
-36.9948
 11
-56.7191
 21
-37.4725
  0
LINE
  8
0
 10
-56.7191
 20
-37.4725
 11
-56.5052
 21
-37.927
  0
LINE
  8
0
 10
-56.5052
 20
-37.927
 11
-56.2361
 21
-38.3511
  0
LINE
  8
0
 10
-56.2361
 20
-38.3511
 11
-55.9159
 21
-38.7382
  0
LINE
  8
0
 10
-55.9159
 20
-38.7382
 11
-55.5497
 21
-39.082
  0
LINE
  8
0
 10
-55.5497
 20
-39.082
 11
-55.1433
 21
-39.3773
  0
LINE
  8
0
 10
-55.1433
 20
-39.3773
 11
-54.7031
 21
-39.6193
  0
LINE
  8
0
 10
-54.7031
 20
-39.6193
 11
-54.2361
 21
-39.8042
  0
LINE
  8
0
 10
-54.2361
 20
-39.8042
 11
-53.7495
 21
-39.9291
  0
LINE
  8
0
 10
-53.7495
 20
-39.9291
 11
-53.2512
 21
-39.9921
  0
LINE
  8
0
 10
-53.2512
 20
-39.9921
 11
53.2512
 21
-39.9921
  0
LINE
  8
0
 10
53.2512
 20
-39.9921
 11
53.7495
 21
-39.9291
  0
LINE
  8
0
 10
51.8744
 20
33.0039
 11
51.6252
 21
33.0354
  0
LINE
  8
0
 10
51.6252
 20
33.0354
 11
51.382
 21
33.0979
  0
LINE
  8
0
 10
51.382
 20
33.0979
 11
51.1484
 21
33.1903
  0
LINE
  8
0
 10
51.1484
 20
33.1903
 11
50.9283
 21
33.3113
  0
LINE
  8
0
 10
50.9283
 20
33.3113
 11
50.7251
 21
33.459
  0
LINE
  8
0
 10
50.7251
 20
33.459
 11
50.5421
 21
33.6309
  0
LINE
  8
0
 10
50.5421
 20
33.6309
 11
50.382
 21
33.8244
  0
LINE
  8
0
 10
50.382
 20
33.8244
 11
50.2474
 21
34.0365
  0
LINE
  8
0
 10
50.2474
 20
34.0365
 11
50.1404
 21
34.2637
  0
LINE
  8
0
 10
50.1404
 20
34.2637
 11
50.0628
 21
34.5026
  0
LINE
  8
0
 10
50.0628
 20
34.5026
 11
50.0158
 21
34.7493
  0
LINE
  8
0
 10
50.0158
 20
34.7493
 11
50
 21
35
  0
LINE
  8
0
 10
50
 20
35
 11
50.0158
 21
35.2507
  0
LINE
  8
0
 10
50.0158
 20
35.2507
 11
50.0628
 21
35.4974
  0
LINE
  8
0
 10
50.0628
 20
35.4974
 11
50.1404
 21
35.7362
  0
LINE
  8
0
 10
50.1404
 20
35.7362
 11
50.2474
 21
35.9635
  0
LINE
  8
0
 10
50.2474
 20
35.9635
 11
50.382
 21
36.1756
  0
LINE
  8
0
 10
50.382
 20
36.1756
 11
50.5421
 21
36.3691
  0
LINE
  8
0
 10
50.5421
 20
36.3691
 11
50.7251
 21
36.541
  0
LINE
  8
0
 10
50.7251
 20
36.541
 11
50.9283
 21
36.6886
  0
LINE
  8
0
 10
50.9283
 20
36.6886
 11
51.1484
 21
36.8096
  0
LINE
  8
0
 10
51.1484
 20
36.8096
 11
51.382
 21
36.9021
  0
LINE
  8
0
 10
51.382
 20
36.9021
 11
51.6252
 21
36.9646
  0
LINE
  8
0
 10
51.6252
 20
36.9646
 11
51.8744
 21
36.996
  0
LINE
  8
0
 10
51.8744
 20
36.996
 11
52.1256
 21
36.996
  0
LINE
  8
0
 10
52.1256
 20
36.996
 11
52.3748
 21
36.9646
  0
LINE
  8
0
 10
52.3748
 20
36.9646
 11
52.618
 21
36.9021
  0
LINE
  8
0
 10
52.618
 20
36.9021
 11
52.8515
 21
36.8096
  0
LINE
  8
0
 10
52.8515
 20
36.8096
 11
53.0716
 21
36.6886
  0
LINE
  8
0
 10
53.0716
 20
36.6886
 11
53.2748
 21
36.541
  0
LINE
  8
0
 10
53.2748
 20
36.541
 11
53.4579
 21
36.3691
  0
LINE
  8
0
 10
53.4579
 20
36.3691
 11
53.618
 21
36.1756
  0
LINE
  8
0
 10
53.618
 20
36.1756
 11
53.7526
 21
35.9635
  0
LINE
  8
0
 10
53.7526
 20
35.9635
 11
53.8595
 21
35.7362
  0
LINE
  8
0
 10
53.8595
 20
35.7362
 11
53.9372
 21
35.4974
  0
LINE
  8
0
 10
53.9372
 20
35.4974
 11
53.9842
 21
35.2507
  0
LINE
  8
0
 10
53.9842
 20
35.2507
 11
54
 21
35
  0
LINE
  8
0
 10
54
 20
35
 11
53.9842
 21
34.7493
  0
LINE
  8
0
 10
53.9842
 20
34.7493
 11
53.9372
 21
34.5026
  0
LINE
  8
0
 10
53.9372
 20
34.5026
 11
53.8595
 21
34.2637
  0
LINE
  8
0
 10
53.8595
 20
34.2637
 11
53.7526
 21
34.0365
  0
LINE
  8
0
 10
53.7526
 20
34.0365
 11
53.618
 21
33.8244
  0
LINE
  8
0
 10
53.618
 20
33.8244
 11
53.4579
 21
33.6309
  0
LINE
  8
0
 10
53.4579
 20
33.6309
 11
53.2748
 21
33.459
  0
LINE
  8
0
 10
53.2748
 20
33.459
 11
53.0716
 21
33.3113
  0
LINE
  8
0
 10
53.0716
 20
33.3113
 11
52.8515
 21
33.1903
  0
LINE
  8
0
 10
52.8515
 20
33.1903
 11
52.618
 21
33.0979
  0
LINE
  8
0
 10
52.618
 20
33.0979
 11
52.3748
 21
33.0354
  0
LINE
  8
0
 10
52.3748
 20
33.0354
 11
52.1256
 21
33.0039
  0
LINE
  8
0
 10
52.1256
 20
33.0039
 11
51.8744
 21
33.0039
  0
LINE
  8
0
 10
-52.1256
 20
33.0039
 11
-52.3748
 21
33.0354
  0
LINE
  8
0
 10
-52.3748
 20
33.0354
 11
-52.618
 21
33.0979
  0
LINE
  8
0
 10
-52.618
 20
33.0979
 11
-52.8515
 21
33.1903
  0
LINE
  8
0
 10
-52.8515
 20
33.1903
 11
-53.0716
 21
33.3113
  0
LINE
  8
0
 10
-53.0716
 20
33.3113
 11
-53.2748
 21
33.459
  0
LINE
  8
0
 10
-53.2748
 20
33.459
 11
-53.4579
 21
33.6309
  0
LINE
  8
0
 10
-53.4579
 20
33.6309
 11
-53.618
 21
33.8244
  0
LINE
  8
0
 10
-53.618
 20
33.8244
 11
-53.7526
 21
34.0365
  0
LINE
  8
0
 10
-53.7526
 20
34.0365
 11
-53.8595
 21
34.2637
  0
LINE
  8
0
 10
-53.8595
 20
34.2637
 11
-53.9372
 21
34.5026
  0
LINE
  8
0
 10
-53.9372
 20
34.5026
 11
-53.9842
 21
34.7493
  0
LINE
  8
0
 10
-53.9842
 20
34.7493
 11
-54
 21
35
  0
LINE
  8
0
 10
-54
 20
35
 11
-53.9842
 21
35.2507
  0
LINE
  8
0
 10
-53.9842
 20
35.2507
 11
-53.9372
 21
35.4974
  0
LINE
  8
0
 10
-53.9372
 20
35.4974
 11
-53.8595
 21
35.7362
  0
LINE
  8
0
 10
-53.8595
 20
35.7362
 11
-53.7526
 21
35.9635
  0
LINE
  8
0
 10
-53.7526
 20
35.9635
 11
-53.618
 21
36.1756
  0
LINE
  8
0
 10
-53.618
 20
36.1756
 11
-53.4579
 21
36.3691
  0
LINE
  8
0
 10
-53.4579
 20
36.3691
 11
-53.2748
 21
36.541
  0
LINE
  8
0
 10
-53.2748
 20
36.541
 11
-53.0716
 21
36.6886
  0
LINE
  8
0
 10
-53.0716
 20
36.6886
 11
-52.8515
 21
36.8096
  0
LINE
  8
0
 10
-52.8515
 20
36.8096
 11
-52.618
 21
36.9021
  0
LINE
  8
0
 10
-52.618
 20
36.9021
 11
-52.3748
 21
36.9646
  0
LINE
  8
0
 10
-52.3748
 20
36.9646
 11
-52.1256
 21
36.996
  0
LINE
  8
0
 10
-52.1256
 20
36.996
 11
-51.8744
 21
36.996
  0
LINE
  8
0
 10
-51.8744
 20
36.996
 11
-51.6252
 21
36.9646
  0
LINE
  8
0
 10
-51.6252
 20
36.9646
 11
-51.382
 21
36.9021
  0
LINE
  8
0
 10
-51.382
 20
36.9021
 11
-51.1484
 21
36.8096
  0
LINE
  8
0
 10
-51.1484
 20
36.8096
 11
-50.9283
 21
36.6886
  0
LINE
  8
0
 10
-50.9283
 20
36.6886
 11
-50.7251
 21
36.541
  0
LINE
  8
0
 10
-50.7251
 20
36.541
 11
-50.5421
 21
36.3691
  0
LINE
  8
0
 10
-50.5421
 20
36.3691
 11
-50.382
 21
36.1756
  0
LINE
  8
0
 10
-50.382
 20
36.1756
 11
-50.2474
 21
35.9635
  0
LINE
  8
0
 10
-50.2474
 20
35.9635
 11
-50.1404
 21
35.7362
  0
LINE
  8
0
 10
-50.1404
 20
35.7362
 11
-50.0628
 21
35.4974
  0
LINE
  8
0
 10
-50.0628
 20
35.4974
 11
-50.0158
 21
35.2507
  0
LINE
  8
0
 10
-50.0158
 20
35.2507
 11
-50
 21
35
  0
LINE
  8
0
 10
-50
 20
35
 11
-50.0158
 21
34.7493
  0
LINE
  8
0
 10
-50.0158
 20
34.7493
 11
-50.0628
 21
34.5026
  0
LINE
  8
0
 10
-50.0628
 20
34.5026
 11
-50.1404
 21
34.2637
  0
LINE
  8
0
 10
-50.1404
 20
34.2637
 11
-50.2474
 21
34.0365
  0
LINE
  8
0
 10
-50.2474
 20
34.0365
 11
-50.382
 21
33.8244
  0
LINE
  8
0
 10
-50.382
 20
33.8244
 11
-50.5421
 21
33.6309
  0
LINE
  8
0
 10
-50.5421
 20
33.6309
 11
-50.7251
 21
33.459
  0
LINE
  8
0
 10
-50.7251
 20
33.459
 11
-50.9283
 21
33.3113
  0
LINE
  8
0
 10
-50.9283
 20
33.3113
 11
-51.1484
 21
33.1903
  0
LINE
  8
0
 10
-51.1484
 20
33.1903
 11
-51.382
 21
33.0979
  0
LINE
  8
0
 10
-51.382
 20
33.0979
 11
-51.6252
 21
33.0354
  0
LINE
  8
0
 10
-51.6252
 20
33.0354
 11
-51.8744
 21
33.0039
  0
LINE
  8
0
 10
-51.8744
 20
33.0039
 11
-52.1256
 21
33.0039
  0
LINE
  8
0
 10
-2.95
 20
-4.75
 11
-2.95
 21
4.75
  0
LINE
  8
0
 10
-2.95
 20
4.75
 11
2.95
 21
4.75
  0
LINE
  8
0
 10
2.95
 20
4.75
 11
2.95
 21
-4.75
  0
LINE
  8
0
 10
2.95
 20
-4.75
 11
-2.95
 21
-4.75
  0
LINE
  8
0
 10
51.8744
 20
-36.996
 11
51.6252
 21
-36.9646
  0
LINE
  8
0
 10
51.6252
 20
-36.9646
 11
51.382
 21
-36.9021
  0
LINE
  8
0
 10
51.382
 20
-36.9021
 11
51.1484
 21
-36.8096
  0
LINE
  8
0
 10
51.1484
 20
-36.8096
 11
50.9283
 21
-36.6886
  0
LINE
  8
0
 10
50.9283
 20
-36.6886
 11
50.7251
 21
-36.541
  0
LINE
  8
0
 10
50.7251
 20
-36.541
 11
50.5421
 21
-36.3691
  0
LINE
  8
0
 10
50.5421
 20
-36.3691
 11
50.382
 21
-36.1756
  0
LINE
  8
0
 10
50.382
 20
-36.1756
 11
50.2474
 21
-35.9635
  0
LINE
  8
0
 10
50.2474
 20
-35.9635
 11
50.1404
 21
-35.7362
  0
LINE
  8
0
 10
50.1404
 20
-35.7362
 11
50.0628
 21
-35.4974
  0
LINE
  8
0
 10
50.0628
 20
-35.4974
 11
50.0158
 21
-35.2507
  0
LINE
  8
0
 10
50.0158
 20
-35.2507
 11
50
 21
-35
  0
LINE
  8
0
 10
50
 20
-35
 11
50.0158
 21
-34.7493
  0
LINE
  8
0
 10
50.0158
 20
-34.7493
 11
50.0628
 21
-34.5026
  0
LINE
  8
0
 10
50.0628
 20
-34.5026
 11
50.1404
 21
-34.2637
  0
LINE
  8
0
 10
50.1404
 20
-34.2637
 11
50.2474
 21
-34.0365
  0
LINE
  8
0
 10
50.2474
 20
-34.0365
 11
50.382
 21
-33.8244
  0
LINE
  8
0
 10
50.382
 20
-33.8244
 11
50.5421
 21
-33.6309
  0
LINE
  8
0
 10
50.5421
 20
-33.6309
 11
50.7251
 21
-33.459
  0
LINE
  8
0
 10
50.7251
 20
-33.459
 11
50.9283
 21
-33.3113
  0
LINE
  8
0
 10
50.9283
 20
-33.3113
 11
51.1484
 21
-33.1903
  0
LINE
  8
0
 10
51.1484
 20
-33.1903
 11
51.382
 21
-33.0979
  0
LINE
  8
0
 10
51.382
 20
-33.0979
 11
51.6252
 21
-33.0354
  0
LINE
  8
0
 10
51.6252
 20
-33.0354
 11
51.8744
 21
-33.0039
  0
LINE
  8
0
 10
51.8744
 20
-33.0039
 11
52.1256
 21
-33.0039
  0
LINE
  8
0
 10
52.1256
 20
-33.0039
 11
52.3748
 21
-33.0354
  0
LINE
  8
0
 10
52.3748
 20
-33.0354
 11
52.618
 21
-33.0979
  0
LINE
  8
0
 10
52.618
 20
-33.0979
 11
52.8515
 21
-33.1903
  0
LINE
  8
0
 10
52.8515
 20
-33.1903
 11
53.0716
 21
-33.3113
  0
LINE
  8
0
 10
53.0716
 20
-33.3113
 11
53.2748
 21
-33.459
  0
LINE
  8
0
 10
53.2748
 20
-33.459
 11
53.4579
 21
-33.6309
  0
LINE
  8
0
 10
53.4579
 20
-33.6309
 11
53.618
 21
-33.8244
  0
LINE
  8
0
 10
53.618
 20
-33.8244
 11
53.7526
 21
-34.0365
  0
LINE
  8
0
 10
53.7526
 20
-34.0365
 11
53.8595
 21
-34.2637
  0
LINE
  8
0
 10
53.8595
 20
-34.2637
 11
53.9372
 21
-34.5026
  0
LINE
  8
0
 10
53.9372
 20
-34.5026
 11
53.9842
 21
-34.7493
  0
LINE
  8
0
 10
53.9842
 20
-34.7493
 11
54
 21
-35
  0
LINE
  8
0
 10
54
 20
-35
 11
53.9842
 21
-35.2507
  0
LINE
  8
0
 10
53.9842
 20
-35.2507
 11
53.9372
 21
-35.4974
  0
LINE
  8
0
 10
53.9372
 20
-35.4974
 11
53.8595
 21
-35.7362
  0
LINE
  8
0
 10
53.8595
 20
-35.7362
 11
53.7526
 21
-35.9635
  0
LINE
  8
0
 10
53.7526
 20
-35.9635
 11
53.618
 21
-36.1756
  0
LINE
  8
0
 10
53.618
 20
-36.1756
 11
53.4579
 21
-36.3691
  0
LINE
  8
0
 10
53.4579
 20
-36.3691
 11
53.2748
 21
-36.541
  0
LINE
  8
0
 10
53.2748
 20
-36.541
 11
53.0716
 21
-36.6886
  0
LINE
  8
0
 10
53.0716
 20
-36.6886
 11
52.8515
 21
-36.8096
  0
LINE
  8
0
 10
52.8515
 20
-36.8096
 11
52.618
 21
-36.9021
  0
LINE
  8
0
 10
52.618
 20
-36.9021
 11
52.3748
 21
-36.9646
  0
LINE
  8
0
 10
52.3748
 20
-36.9646
 11
52.1256
 21
-36.996
  0
LINE
  8
0
 10
52.1256
 20
-36.996
 11
51.8744
 21
-36.996
  0
LINE
  8
0
 10
-52.1256
 20
-36.996
 11
-52.3748
 21
-36.9646
  0
LINE
  8
0
 10
-52.3748
 20
-36.9646
 11
-52.618
 21
-36.9021
  0
LINE
  8
0
 10
-52.618
 20
-36.9021
 11
-52.8515
 21
-36.8096
  0
LINE
  8
0
 10
-52.8515
 20
-36.8096
 11
-53.0716
 21
-36.6886
  0
LINE
  8
0
 10
-53.0716
 20
-36.6886
 11
-53.2748
 21
-36.541
  0
LINE
  8
0
 10
-53.2748
 20
-36.541
 11
-53.4579
 21
-36.3691
  0
LINE
  8
0
 10
-53.4579
 20
-36.3691
 11
-53.618
 21
-36.1756
  0
LINE
  8
0
 10
-53.618
 20
-36.1756
 11
-53.7526
 21
-35.9635
  0
LINE
  8
0
 10
-53.7526
 20
-35.9635
 11
-53.8595
 21
-35.7362
  0
LINE
  8
0
 10
-53.8595
 20
-35.7362
 11
-53.9372
 21
-35.4974
  0
LINE
  8
0
 10
-53.9372
 20
-35.4974
 11
-53.9842
 21
-35.2507
  0
LINE
  8
0
 10
-53.9842
 20
-35.2507
 11
-54
 21
-35
  0
LINE
  8
0
 10
-54
 20
-35
 11
-53.9842
 21
-34.7493
  0
LINE
  8
0
 10
-53.9842
 20
-34.7493
 11
-53.9372
 21
-34.5026
  0
LINE
  8
0
 10
-53.9372
 20
-34.5026
 11
-53.8595
 21
-34.2637
  0
LINE
  8
0
 10
-53.8595
 20
-34.2637
 11
-53.7526
 21
-34.0365
  0
LINE
  8
0
 10
-53.7526
 20
-34.0365
 11
-53.618
 21
-33.8244
  0
LINE
  8
0
 10
-53.618
 20
-33.8244
 11
-53.4579
 21
-33.6309
  0
LINE
  8
0
 10
-53.4579
 20
-33.6309
 11
-53.2748
 21
-33.459
  0
LINE
  8
0
 10
-53.2748
 20
-33.459
 11
-53.0716
 21
-33.3113
  0
LINE
  8
0
 10
-53.0716
 20
-33.3113
 11
-52.8515
 21
-33.1903
  0
LINE
  8
0
 10
-52.8515
 20
-33.1903
 11
-52.618
 21
-33.0979
  0
LINE
  8
0
 10
-52.618
 20
-33.0979
 11
-52.3748
 21
-33.0354
  0
LINE
  8
0
 10
-52.3748
 20
-33.0354
 11
-52.1256
 21
-33.0039
  0
LINE
  8
0
 10
-52.1256
 20
-33.0039
 11
-51.8744
 21
-33.0039
  0
LINE
  8
0
 10
-51.8744
 20
-33.0039
 11
-51.6252
 21
-33.0354
  0
LINE
  8
0
 10
-51.6252
 20
-33.0354
 11
-51.382
 21
-33.0979
  0
LINE
  8
0
 10
-51.382
 20
-33.0979
 11
-51.1484
 21
-33.1903
  0
LINE
  8
0
 10
-51.1484
 20
-33.1903
 11
-50.9283
 21
-33.3113
  0
LINE
  8
0
 10
-50.9283
 20
-33.3113
 11
-50.7251
 21
-33.459
  0
LINE
  8
0
 10
-50.7251
 20
-33.459
 11
-50.5421
 21
-33.6309
  0
LINE
  8
0
 10
-50.5421
 20
-33.6309
 11
-50.382
 21
-33.8244
  0
LINE
  8
0
 10
-50.382
 20
-33.8244
 11
-50.2474
 21
-34.0365
  0
LINE
  8
0
 10
-50.2474
 20
-34.0365
 11
-50.1404
 21
-34.2637
  0
LINE
  8
0
 10
-50.1404
 20
-34.2637
 11
-50.0628
 21
-34.5026
  0
LINE
  8
0
 10
-50.0628
 20
-34.5026
 11
-50.0158
 21
-34.7493
  0
LINE
  8
0
 10
-50.0158
 20
-34.7493
 11
-50
 21
-35
  0
LINE
  8
0
 10
-50
 20
-35
 11
-50.0158
 21
-35.2507
  0
LINE
  8
0
 10
-50.0158
 20
-35.2507
 11
-50.0628
 21
-35.4974
  0
LINE
  8
0
 10
-50.0628
 20
-35.4974
 11
-50.1404
 21
-35.7362
  0
LINE
  8
0
 10
-50.1404
 20
-35.7362
 11
-50.2474
 21
-35.9635
  0
LINE
  8
0
 10
-50.2474
 20
-35.9635
 11
-50.382
 21
-36.1756
  0
LINE
  8
0
 10
-50.382
 20
-36.1756
 11
-50.5421
 21
-36.3691
  0
LINE
  8
0
 10
-50.5421
 20
-36.3691
 11
-50.7251
 21
-36.541
  0
LINE
  8
0
 10
-50.7251
 20
-36.541
 11
-50.9283
 21
-36.6886
  0
LINE
  8
0
 10
-50.9283
 20
-36.6886
 11
-51.1484
 21
-36.8096
  0
LINE
  8
0
 10
-51.1484
 20
-36.8096
 11
-51.382
 21
-36.9021
  0
LINE
  8
0
 10
-51.382
 20
-36.9021
 11
-51.6252
 21
-36.9646
  0
LINE
  8
0
 10
-51.6252
 20
-36.9646
 11
-51.8744
 21
-36.996
  0
LINE
  8
0
 10
-51.8744
 20
-36.996
 11
-52.1256
 21
-36.996
  0
ENDSEC
  0
SECTION
  2
OBJECTS
  0
DICTIONARY
  0
ENDSEC
  0
EOF
